SplineFontDB: 3.2
FontName: RazeDragmyr
FullName: Raze Dragmyr
FamilyName: Raze Dragmyr
Weight: Regular
Copyright: Copyright (c) 2020, Eric Scholz
UComments: "2020-12-2: Created with FontForge (http://fontforge.org)"
Version: 000.001
ItalicAngle: 0
UnderlinePosition: -100
UnderlineWidth: 50
Ascent: 750
Descent: 250
InvalidEm: 0
LayerCount: 2
Layer: 0 0 "Back" 1
Layer: 1 0 "Fore" 0
XUID: [1021 981 1692638275 468]
StyleMap: 0x0000
FSType: 0
OS2Version: 0
OS2_WeightWidthSlopeOnly: 0
OS2_UseTypoMetrics: 1
CreationTime: 1606962887
ModificationTime: 1608602307
OS2TypoAscent: 0
OS2TypoAOffset: 1
OS2TypoDescent: 0
OS2TypoDOffset: 1
OS2TypoLinegap: 90
OS2WinAscent: 0
OS2WinAOffset: 1
OS2WinDescent: 0
OS2WinDOffset: 1
HheadAscent: 0
HheadAOffset: 1
HheadDescent: 0
HheadDOffset: 1
MarkAttachClasses: 1
DEI: 91125
Encoding: ISO8859-1
UnicodeInterp: none
NameList: AGL For New Fonts
DisplaySize: -72
AntiAlias: 1
FitToEm: 0
WinInfo: 0 8 18
BeginPrivate: 1
BlueValues 26 [-198 125 499 532 691 714]
EndPrivate
Grid
700 -251 m 25
 700 749 l 1049
350 499 m 25
 700 124 l 25
 350 -251 l 25
 0 124 l 1049
0 124 m 25
 350 499 l 25
 350 -251 l 1049
0 124 m 17
 700 124 l 1
 700 124 l 1033
1000 749 m 25
 1000 -253 l 1049
0 499 m 25
 700 -251 l 1049
700 499 m 1
 0 -251 l 1025
0 499 m 1
 1000 499 l 1025
  Named: "x-height"
EndSplineSet
AnchorClass2: "MiddleBottom""" 
BeginChars: 256 91

StartChar: A
Encoding: 65 65 0
Width: 399
VWidth: 998
Flags: W
HStem: -159.862 249G<8.92454 55.1132 308.425 348.966>
VStem: 298.722 52.0566<-144.057 444.196>
LayerCount: 2
Fore
SplineSet
348.842773438 615.734375 m 1
 350.778320312 -159.612304688 l 1
 319.971679688 -180.862304688 l 1
 298.721679688 -144.056640625 l 1
 297.483398438 444.196289062 l 1
 57.2783203125 110.387695312 l 1
 20.4716796875 89.1376953125 l 1
 -0.7783203125 125.943359375 l 1
 348.842773438 615.734375 l 1
EndSplineSet
Validated: 1
EndChar

StartChar: B
Encoding: 66 66 1
Width: 435
VWidth: 998
Flags: W
HStem: -196.778 21G<10.9249 57.1132> 158.972 57.7402<115.335 286.483> 440.722 58.0566<38.0283 173.369>
LayerCount: 2
Back
SplineSet
555 1209 m 1053
EndSplineSet
Fore
SplineSet
-453 -1014 m 1049
115.334960938 216.711914062 m 5
 354.528320312 215.328125 l 5
 375.778320312 178.521484375 l 5
 59.2783203125 -175.528320312 l 5
 22.4716796875 -196.778320312 l 5
 1.2216796875 -159.971679688 l 5
 286.483398438 157.588867188 l 5
 44.4716796875 158.971679688 l 5
 23.2216796875 195.778320312 l 5
 173.369140625 440.721679688 l 5
 22.4716796875 440.721679688 l 5
 1.2216796875 477.528320312 l 5
 38.0283203125 498.778320312 l 5
 241.528320312 498.778320312 l 5
 262.778320312 461.971679688 l 5
 115.334960938 216.711914062 l 5
EndSplineSet
Validated: 1
EndChar

StartChar: C
Encoding: 67 67 2
Width: 272
Flags: W
HStem: -196.778 58.0566<58.0283 361.222> 440.722 58.0566<58.0283 166.572>
VStem: -0.0283203 58.0566<-138.722 440.722>
LayerCount: 2
Fore
SplineSet
-0.0283203125 -196.778320312 m 1
 -0.0283203125 498.778320312 l 1
 182.127929688 498.778320312 l 1
 203.377929688 461.971679688 l 1
 166.572265625 440.721679688 l 1
 58.0283203125 440.721679688 l 1
 58.0283203125 -138.721679688 l 1
 376.778320312 -138.721679688 l 1
 398.028320312 -175.528320312 l 1
 361.221679688 -196.778320312 l 1
 -0.0283203125 -196.778320312 l 1
EndSplineSet
Validated: 1
EndChar

StartChar: D
Encoding: 68 68 3
Width: 412
Flags: W
HStem: -198 58<37 101.624> -36 21G<9.64865 56.2381> 441 58<58 298>
VStem: 0 58<1 441> 298 58<128.234 441>
LayerCount: 2
Fore
SplineSet
58 441 m 5
 58 -15 l 5
 21 -36 l 5
 0 1 l 5
 0 499 l 5
 356 499 l 5
 356 301 l 6
 356 39 251 -92 157 -145 c 6
 121 -167 l 6
 83 -188 47 -197 21 -198 c 5
 0 -161 l 5
 37 -140 l 5
 59 -139 87 -133 118 -118 c 5
 206 -59 298 72 298 317 c 6
 298 441 l 5
 58 441 l 5
EndSplineSet
Validated: 1
EndChar

StartChar: E
Encoding: 69 69 4
Width: 405
Flags: W
HStem: -196.778 58.0566<58.2783 318.972> 270.127 58.0117<58.2783 176.972> 440.722 58.0566<58.2783 318.972>
VStem: 0.22168 58.0566<-138.722 270.127 328.139 440.722>
LayerCount: 2
Fore
SplineSet
192.528320312 328.927734375 m 1
 213.778320312 292.122070312 l 1
 176.971679688 270.872070312 l 1
 58.2783203125 270.126953125 l 1
 58.2783203125 -138.721679688 l 1
 334.528320312 -138.721679688 l 1
 355.778320312 -175.528320312 l 1
 318.971679688 -196.778320312 l 1
 21.4716796875 -196.778320312 l 1
 0.2216796875 -159.971679688 l 1
 0.2216796875 271.828125 l 1
 0.2216796875 477.528320312 l 1
 37.0283203125 498.778320312 l 1
 334.528320312 498.778320312 l 1
 355.778320312 461.971679688 l 1
 318.971679688 440.721679688 l 1
 58.2783203125 440.721679688 l 1
 58.2783203125 328.138671875 l 1
 192.528320312 328.927734375 l 1
EndSplineSet
Validated: 1
EndChar

StartChar: F
Encoding: 70 70 5
Width: 411
Flags: W
HStem: -196.778 21G<9.92485 56.1132> 273.215 58.1865<58.2783 225.472> 440.722 58.0566<58.2783 318.972>
VStem: 0.22168 58.0566<-159.972 273.215 331.401 440.722>
LayerCount: 2
Fore
SplineSet
0.2216796875 477.528320312 m 1
 37.0283203125 498.778320312 l 1
 334.528320312 498.778320312 l 1
 355.778320312 461.971679688 l 1
 318.971679688 440.721679688 l 1
 58.2783203125 440.721679688 l 1
 58.2783203125 331.401367188 l 1
 241.028320312 329.877929688 l 1
 262.278320312 293.072265625 l 1
 225.471679688 271.822265625 l 1
 58.2783203125 273.21484375 l 1
 58.2783203125 -175.528320312 l 1
 21.4716796875 -196.778320312 l 1
 0.2216796875 -159.971679688 l 1
 0.2216796875 263.328125 l 1
 0.2216796875 477.528320312 l 1
EndSplineSet
Validated: 1
EndChar

StartChar: G
Encoding: 71 71 6
Width: 401
Flags: W
HStem: -195.778 58.0566<58.2783 291.722> 273.572 58.0557<184.028 291.722> 440.722 58.0566<58.2783 312.972>
VStem: 0.22168 58.0566<-137.722 440.722> 291.722 58.0566<-137.722 273.572>
LayerCount: 2
Fore
SplineSet
291.721679688 -137.721679688 m 1
 291.721679688 273.572265625 l 1
 168.471679688 273.572265625 l 1
 147.221679688 310.377929688 l 1
 184.028320312 331.627929688 l 1
 328.528320312 331.627929688 l 1
 349.778320312 294.822265625 l 1
 349.778320312 -174.528320312 l 1
 312.971679688 -195.778320312 l 1
 21.4716796875 -195.778320312 l 1
 0.2216796875 -158.971679688 l 1
 0.2216796875 477.528320312 l 1
 37.0283203125 498.778320312 l 1
 328.528320312 498.778320312 l 1
 349.778320312 461.971679688 l 1
 312.971679688 440.721679688 l 1
 58.2783203125 440.721679688 l 1
 58.2783203125 -137.721679688 l 1
 291.721679688 -137.721679688 l 1
EndSplineSet
Validated: 1
EndChar

StartChar: H
Encoding: 72 72 7
Width: 408
Flags: W
HStem: -195.778 21G<8.92485 55.1132 306.425 352.613> 282.867 58.1006<57.2783 296.722> 479.778 20G<1.3877 47.5751 298.887 345.075>
VStem: -0.77832 58.0566<-158.972 282.867 340.968 462.972> 296.722 58.0566<-158.972 282.183 340.283 462.972>
LayerCount: 2
Fore
SplineSet
-0.77734375 478.528320312 m 1
 36.0283203125 499.778320312 l 1
 57.2783203125 462.971679688 l 1
 57.2783203125 368.970703125 57.2783203125 434.96875 57.2783203125 340.967773438 c 1
 296.721679688 340.283203125 l 1
 296.721679688 478.528320312 l 1
 333.528320312 499.778320312 l 1
 354.778320312 462.971679688 l 1
 354.778320312 143.372070312 l 1
 354.778320312 -174.528320312 l 1
 317.971679688 -195.778320312 l 1
 296.721679688 -158.971679688 l 1
 296.721679688 282.182617188 l 1
 57.2783203125 282.8671875 l 1
 57.2783203125 -174.528320312 l 1
 20.4716796875 -195.778320312 l 1
 -0.7783203125 -158.971679688 l 1
 -0.7783203125 159.778320312 l 1
 -0.77734375 159.778320312 l 1
 -0.77734375 478.528320312 l 1
EndSplineSet
Validated: 1
EndChar

StartChar: I
Encoding: 73 73 8
Width: 210
Flags: W
HStem: -196.965 58.0557<37.9883 94.667> 440.535 58.0557<36.9883 91.5781>
VStem: 91.5781 57.6641<-140.189 440.535>
LayerCount: 2
Fore
SplineSet
149.2421875 498.590820312 m 1
 152.953125 -199.084960938 l 1
 22.4326171875 -196.96484375 l 1
 1.1826171875 -160.159179688 l 1
 37.98828125 -138.909179688 l 1
 94.6669921875 -140.189453125 l 1
 91.578125 440.53515625 l 1
 21.4326171875 440.53515625 l 1
 0.1826171875 477.340820312 l 1
 36.98828125 498.590820312 l 1
 149.2421875 498.590820312 l 1
EndSplineSet
Validated: 1
EndChar

StartChar: J
Encoding: 74 74 9
Width: 414
Flags: W
HStem: -195.848 58.0557<33.4346 121.493> 440.701 58.2656<205.085 297.938>
VStem: 147.028 58.0566<410.462 440.701> 295.844 58.0557<43.7534 440.018>
LayerCount: 2
Fore
SplineSet
353.615234375 200.916992188 m 0
 353.615234375 180.750976562 353.899414062 160.088867188 353.899414062 139.337890625 c 0
 353.899414062 18.9306640625 290.390625 -86.3232421875 198.913085938 -139.137695312 c 2
 162.106445312 -160.387695312 l 2
 119.51953125 -184.975585938 68.5205078125 -195.84765625 19.3017578125 -195.84765625 c 0
 18.8271484375 -195.84765625 18.3525390625 -195.846679688 17.87890625 -195.84375 c 2
 -3.37109375 -159.038085938 l 1
 33.4345703125 -137.788085938 l 2
 33.9091796875 -137.791015625 34.3837890625 -137.791992188 34.857421875 -137.791992188 c 0
 76.9912109375 -137.791992188 118.23046875 -118.625976562 155.946289062 -100.275390625 c 1
 237.971679688 -44.943359375 295.84375 42.578125 295.84375 154.89453125 c 0
 295.84375 175.642578125 295.55859375 196.30859375 295.55859375 216.47265625 c 0
 295.55859375 298.435546875 296.932617188 366.536132812 297.938476562 440.017578125 c 1
 205.084960938 440.701171875 l 1
 205.084960938 394.90625 l 1
 168.278320312 373.65625 l 1
 147.028320312 410.461914062 l 1
 147.028320312 498.966796875 l 1
 356.791015625 497.950195312 l 1
 355.81640625 397.557617188 353.615234375 308.154296875 353.615234375 200.916992188 c 0
EndSplineSet
Validated: 1
EndChar

StartChar: K
Encoding: 75 75 10
Width: 379
Flags: W
HStem: -191.499 21G<0.22168 23.4321 300.454 353.613> 479.72 20G<2.38678 48.5751>
VStem: 0.22168 58.0566<71.8818 462.913>
LayerCount: 2
Fore
SplineSet
0.2216796875 -191.499023438 m 1
 0.2216796875 478.469726562 l 1
 37.0283203125 499.719726562 l 1
 58.2783203125 462.913085938 l 1
 58.2783203125 71.8818359375 l 1
 138.380859375 242.790039062 217.887695312 414.293945312 297.721679688 585.469726562 c 1
 334.528320312 606.719726562 l 1
 355.778320312 569.913085938 l 1
 291.403320312 431.564453125 226.993164062 293.25 162.465820312 155.052734375 c 1
 334.528320312 -30.7802734375 l 1
 355.778320312 -67.5869140625 l 1
 318.971679688 -88.8369140625 l 1
 139.225585938 105.295898438 l 1
 92.966796875 6.2890625 46.642578125 -92.6533203125 0.2216796875 -191.499023438 c 1
EndSplineSet
Validated: 1
EndChar

StartChar: L
Encoding: 76 76 11
Width: 175
Flags: W
HStem: -157.778 58.0566<57.2783 317.972> 479.778 20G<1.38678 47.5751>
VStem: -0.77832 58.0566<-99.7217 462.972>
LayerCount: 2
Fore
SplineSet
-0.7783203125 -157.778320312 m 1
 -0.7783203125 478.528320312 l 1
 36.0283203125 499.778320312 l 1
 57.2783203125 462.971679688 l 1
 57.2783203125 -99.7216796875 l 1
 333.528320312 -99.7216796875 l 1
 354.778320312 -136.528320312 l 1
 317.971679688 -157.778320312 l 1
 -0.7783203125 -157.778320312 l 1
EndSplineSet
Validated: 1
EndChar

StartChar: M
Encoding: 77 77 12
Width: 419
Flags: W
HStem: -153.653 118G<8.92485 55.1132 148.368 216.017 306.425 352.613> 479.653 20G<-0.77832 57.2783 288.319 354.778>
VStem: -0.77832 58.0566<1.15332 313.375> 296.722 58.0566<-137.847 296.823>
LayerCount: 2
Fore
SplineSet
174.901367188 209.69140625 m 1
 296.721679688 499.653320312 l 1
 354.778320312 484.096679688 l 1
 354.778320312 -153.403320312 l 1
 317.971679688 -174.653320312 l 1
 296.721679688 -137.846679688 l 1
 296.721679688 296.823242188 l 1
 206.424804688 108.546875 l 1
 148.368164062 124.103515625 l 1
 57.2783203125 313.375 l 1
 57.2783203125 -14.4033203125 l 1
 20.4716796875 -35.6533203125 l 1
 -0.7783203125 1.1533203125 l 1
 -0.7783203125 499.653320312 l 1
 57.2783203125 484.096679688 l 1
 174.901367188 209.69140625 l 1
EndSplineSet
Validated: 1
EndChar

StartChar: N
Encoding: 78 78 13
Width: 409
Flags: W
HStem: -198.778 21G<8.92485 55.1132> 480.778 20G<298.887 345.075>
VStem: -0.77832 58.0566<-161.972 387.122> 296.722 58.0566<-17.1221 463.972>
LayerCount: 2
Fore
SplineSet
354.778320312 -250.377929688 m 1
 57.2783203125 387.122070312 l 1
 57.2783203125 -177.528320312 l 1
 20.4716796875 -198.778320312 l 1
 -0.7783203125 -161.971679688 l 1
 -0.7783203125 620.377929688 l 1
 296.721679688 -17.1220703125 l 1
 296.721679688 479.528320312 l 1
 333.528320312 500.778320312 l 1
 354.778320312 463.971679688 l 1
 354.778320312 -250.377929688 l 1
EndSplineSet
Validated: 1
EndChar

StartChar: O
Encoding: 79 79 14
Width: 401
Flags: W
HStem: -194.931 58.0557<118.628 236.306> 440.875 58.0557<118.173 235.979>
VStem: 0.0585938 58.0557<-38.947 357.346> 297.859 58.0557<-48.2879 339.13>
LayerCount: 2
Fore
SplineSet
355.915039062 120.390625 m 0
 355.915039062 12.5244140625 344.334960938 -115.8125 269.852539062 -158.815429688 c 2
 233.045898438 -180.065429688 l 2
 216.544921875 -189.592773438 196.956054688 -194.930664062 173.72265625 -194.930664062 c 0
 121.836914062 -194.930664062 87.8125 -169.475585938 65.31640625 -130.51171875 c 2
 44.06640625 -93.7060546875 l 2
 6.671875 -28.9365234375 1.283203125 73.3125 0.2197265625 158.927734375 c 0
 0.1201171875 166.927734375 0.05859375 175.092773438 0.05859375 183.375 c 0
 0.05859375 291.807617188 10.6455078125 420.375976562 84.6220703125 463.086914062 c 2
 121.427734375 484.336914062 l 2
 137.63671875 493.694335938 156.887695312 498.930664062 179.736328125 498.930664062 c 0
 232.482421875 498.930664062 267.100585938 473 289.98828125 433.356445312 c 2
 311.23828125 396.55078125 l 2
 349.022460938 331.107421875 354.715820312 228.1171875 355.776367188 141.671875 c 0
 355.864257812 134.690429688 355.915039062 127.5859375 355.915039062 120.390625 c 0
164.180664062 440.875 m 0
 149.850585938 440.875 136.935546875 438.815429688 125.298828125 434.971679688 c 1
 66.9921875 383.299804688 58.1142578125 267.116210938 58.1142578125 167.818359375 c 0
 58.1142578125 159.537109375 58.17578125 151.372070312 58.2763671875 143.372070312 c 0
 59.2373046875 66.01171875 63.7294921875 -24.9306640625 92.1748046875 -89.53125 c 1
 114.34765625 -118.685546875 145.405273438 -136.875 189.278320312 -136.875 c 0
 204.002929688 -136.875 217.262695312 -134.73046875 229.200195312 -130.735351562 c 1
 288.135742188 -78.9248046875 297.859375 37.10546875 297.859375 135.947265625 c 0
 297.859375 143.142578125 297.807617188 150.24609375 297.719726562 157.228515625 c 0
 296.760742188 235.426757812 292.009765625 327.165039062 263.142578125 392.400390625 c 1
 240.572265625 422.228515625 208.918945312 440.875 164.180664062 440.875 c 0
EndSplineSet
Validated: 1
EndChar

StartChar: P
Encoding: 80 80 15
Width: 404
Flags: W
HStem: -196.778 21G<9.92485 56.1132> 440.722 58.0566<58.2783 296.278>
VStem: 0.22168 58.0566<-159.972 202.65 321.979 440.722>
LayerCount: 2
Fore
SplineSet
58.2783203125 143.221679688 m 2
 58.2783203125 -175.528320312 l 1
 21.4716796875 -196.778320312 l 1
 0.2216796875 -159.971679688 l 1
 0.2216796875 158.778320312 l 2
 0.2216796875 196.525390625 13.89453125 218.422851562 36.72265625 231.602539062 c 2
 73.529296875 252.852539062 l 2
 94.017578125 264.681640625 122.07421875 269.293945312 150.989257812 275.291992188 c 0
 177.353515625 280.760742188 205.262695312 291.549804688 231.145507812 302.6640625 c 1
 264.684570312 328.4765625 290.1015625 365.969726562 296.278320312 440.721679688 c 1
 58.2783203125 440.721679688 l 1
 58.2783203125 306.421875 l 1
 21.4716796875 285.171875 l 1
 0.2216796875 321.978515625 l 1
 0.2216796875 498.778320312 l 1
 355.778320312 498.778320312 l 1
 355.778320312 461.971679688 l 2
 355.778320312 349.846679688 319.354492188 297.970703125 271.998046875 270.629882812 c 2
 235.19140625 249.379882812 l 2
 204.237304688 231.5078125 168.612304688 224.118164062 135.43359375 217.235351562 c 0
 115.561523438 213.11328125 96.56640625 209.173828125 79.9794921875 203.272460938 c 1
 66.4072265625 190.081054688 58.2783203125 171.319335938 58.2783203125 143.221679688 c 2
EndSplineSet
Validated: 1
EndChar

StartChar: Q
Encoding: 81 81 16
Width: 415
Flags: W
HStem: -175.15 21G<486.583 512.996> 0.99707 58.0557<112.034 231.328> 440.797 58.0566<121.446 239.744>
VStem: 1.2207 58.0059<137.415 273.64 286.945 390.869> 298.754 58.0557<153.346 364.127>
LayerCount: 2
Fore
SplineSet
576 429 m 1053
267.693359375 130.489257812 m 1
 294.903320312 197.82421875 298.75390625 205.91796875 298.75390625 285.254882812 c 0
 298.75390625 360.227539062 293.504882812 331.395507812 266.186523438 393.37890625 c 1
 243.9921875 422.598632812 212.908203125 440.796875 169.520507812 440.796875 c 0
 154.591796875 440.796875 141.180664062 438.6328125 129.131835938 434.59765625 c 1
 65.5341796875 378.638671875 59.92578125 390.826171875 59.2763671875 286.296875 c 0
 59.2451171875 281.314453125 59.2265625 276.268554688 59.2265625 271.169921875 c 0
 59.2265625 196.721679688 63.19921875 164.166015625 89.580078125 103.182617188 c 1
 110.68359375 75.9140625 140.270507812 59.052734375 181.676757812 59.052734375 c 0
 197.419921875 59.052734375 211.5625 61.408203125 224.267578125 65.7861328125 c 0
 230.489257812 71.1572265625 236.196289062 77.205078125 241.431640625 83.8408203125 c 1
 173.204101562 156.546875 l 1
 151.954101562 193.353515625 l 1
 188.759765625 214.603515625 l 1
 267.693359375 130.489257812 l 1
356.809570312 269.69921875 m 0
 356.809570312 177.981445312 351.602539062 152.12109375 310.75 84.6064453125 c 1
 471.526367188 -80.796875 l 1
 524.150390625 -175.150390625 l 1
 455.970703125 -138.853515625 l 1
 277.021484375 45.9150390625 l 1
 273.157226562 42.9541015625 269.108398438 40.2392578125 264.864257812 37.7890625 c 2
 228.05859375 16.5390625 l 2
 210.813476562 6.5830078125 190.364257812 0.9970703125 166.120117188 0.9970703125 c 0
 116.678710938 0.9970703125 84.087890625 25.037109375 62.6708984375 62.1328125 c 2
 41.4208984375 98.9384765625 l 2
 6.09765625 160.120117188 1.1708984375 203.811523438 1.1708984375 286.7265625 c 0
 1.1708984375 291.82421875 1.189453125 268.870117188 1.220703125 273.853515625 c 0
 1.9248046875 387.2109375 8.4609375 416.48046875 88.46484375 462.670898438 c 2
 125.270507812 483.920898438 l 2
 141.850585938 493.493164062 161.584960938 498.853515625 185.076171875 498.853515625 c 0
 236.396484375 498.853515625 270.502929688 473.391601562 293.044921875 434.348632812 c 2
 314.294921875 397.54296875 l 2
 350.330078125 335.127929688 356.809570312 353.002929688 356.809570312 269.69921875 c 0
EndSplineSet
Validated: 524293
EndChar

StartChar: R
Encoding: 82 82 17
Width: 499
Flags: W
HStem: 430.85 68.3008<145.956 338.85>
VStem: 338.85 68.3008<269.575 430.85> 349.85 68.3008<-178.85 50.4971>
LayerCount: 2
Fore
SplineSet
0.0439453125 499.150390625 m 1xa0
 407.150390625 499.150390625 l 1xc0
 418.150390625 138.388671875 l 1
 691.150390625 -153.849609375 l 1
 716.150390625 -197.150390625 l 1
 672.849609375 -222.150390625 l 1
 418.150390625 50.4970703125 l 1
 418.150390625 -197.150390625 l 1
 374.849609375 -222.150390625 l 1
 349.849609375 -178.849609375 l 1
 349.849609375 123.611328125 l 1
 0.0439453125 499.150390625 l 1xa0
338.849609375 430.849609375 m 1
 145.956054688 430.849609375 l 1
 336.849609375 226.502929688 l 1
 338.849609375 430.849609375 l 1
EndSplineSet
Validated: 1
EndChar

StartChar: S
Encoding: 83 83 18
Width: 409
Flags: W
HStem: -196.778 58.0566<121.028 297.722> 273.972 58.0566<58.2783 297.722> 440.722 58.0566<58.2783 195.972>
VStem: 0.22168 58.0566<332.028 440.722> 297.722 53.0566<-138.722 273.972>
LayerCount: 2
Fore
SplineSet
297.721679688 -138.721679688 m 1
 297.721679688 273.971679688 l 1
 21.4716796875 273.971679688 l 1
 0.2216796875 310.778320312 l 1
 0.2216796875 477.528320312 l 1
 37.0283203125 498.778320312 l 1
 211.528320312 498.778320312 l 1
 232.778320312 461.971679688 l 1
 195.971679688 440.721679688 l 1
 58.2783203125 440.721679688 l 1
 58.2783203125 332.028320312 l 1
 329.528320312 332.028320312 l 1
 350.778320312 295.221679688 l 1
 350.778320312 -175.528320312 l 1
 313.971679688 -196.778320312 l 1
 105.471679688 -196.778320312 l 1
 84.2216796875 -159.971679688 l 1
 121.028320312 -138.721679688 l 1
 297.721679688 -138.721679688 l 1
EndSplineSet
Validated: 1
EndChar

StartChar: T
Encoding: 84 84 19
Width: 403
Flags: W
HStem: -197.703 21G<301.35 347.538> 440.646 58.0566<58.3535 291.646>
VStem: 0.296875 58.0566<423.354 440.646> 291.646 58.0566<-160.896 440.646>
LayerCount: 2
Fore
SplineSet
291.646484375 440.646484375 m 1
 58.353515625 440.646484375 l 1
 58.353515625 407.796875 l 1
 21.546875 386.546875 l 1
 0.296875 423.353515625 l 1
 0.296875 498.703125 l 1
 349.703125 498.703125 l 1
 349.703125 -176.453125 l 1
 312.896484375 -197.703125 l 1
 291.646484375 -160.896484375 l 1
 291.646484375 440.646484375 l 1
EndSplineSet
Validated: 1
EndChar

StartChar: U
Encoding: 85 85 20
Width: 415
Flags: W
HStem: -196.778 21G<265.785 354.076> 478.778 20G<299.036 345.224>
VStem: 1.07129 58.0566<159.969 304.722> 296.054 57.9961<-136.114 461.972>
LayerCount: 2
Fore
SplineSet
59.1279296875 304.538085938 m 0
 59.1279296875 297.942382812 71.0771484375 116.540039062 141.450195312 -21.5498046875 c 1
 179.202148438 -79.2060546875 221.088867188 -125.158203125 296.053710938 -136.114257812 c 1
 296.87109375 477.528320312 l 1
 333.676757812 498.778320312 l 1
 354.926757812 461.971679688 l 1
 354.049804688 -196.778320312 l 1
 317.271484375 -196.778320312 l 2
 214.297851562 -196.778320312 147.2734375 -138.91015625 103.6484375 -63.349609375 c 2
 82.3984375 -26.5439453125 l 2
 1.771484375 113.106445312 1.0712890625 313.19140625 1.0712890625 320.094726562 c 0
 1.0712890625 320.216796875 1.072265625 320.278320312 1.072265625 320.278320312 c 1
 37.8779296875 341.528320312 l 1
 59.1279296875 304.721679688 l 1
 59.1279296875 304.721679688 59.1279296875 304.66015625 59.1279296875 304.538085938 c 0
EndSplineSet
Validated: 1
EndChar

StartChar: V
Encoding: 86 86 21
Width: 413
Flags: W
HStem: 480.049 20G<1.38678 46.9801 299.938 342.792>
VStem: 296.722 57.0566<-12.8516 463.242>
LayerCount: 2
Fore
SplineSet
353.778320312 -251.107421875 m 1
 -0.7783203125 478.798828125 l 1
 36.0283203125 500.048828125 l 1
 57.2783203125 461.2421875 l 1
 296.721679688 -12.8515625 l 1
 296.721679688 477.798828125 l 1
 328.528320312 500.048828125 l 1
 354.778320312 463.2421875 l 1
 353.778320312 -251.107421875 l 1
EndSplineSet
Validated: 1
EndChar

StartChar: W
Encoding: 87 87 22
Width: 411
Flags: W
HStem: -197.528 21G<0.22168 64.0452> 478.778 20G<2.38678 48.5751 293.887 340.075>
VStem: 0.22168 58.0566<-181.972 -173.252 1.24316 461.972> 291.722 58.0566<40.7129 461.972>
LayerCount: 2
Fore
SplineSet
58.2783203125 1.2431640625 m 1
 150.162109375 279.127929688 l 1
 186.967773438 340.377929688 l 1
 291.721679688 40.712890625 l 1
 291.721679688 477.528320312 l 1
 328.528320312 498.778320312 l 1
 349.778320312 461.971679688 l 1
 349.778320312 -178.528320312 l 1
 312.971679688 -199.778320312 l 1
 179.671875 223.471679688 l 1
 58.2783203125 -197.528320312 l 1
 0.2216796875 -181.971679688 l 1
 0.2216796875 477.528320312 l 1
 37.0283203125 498.778320312 l 1
 58.2783203125 461.971679688 l 1
 58.2783203125 1.2431640625 l 1
EndSplineSet
Validated: 1
EndChar

StartChar: X
Encoding: 88 88 23
Width: 363
Flags: W
HStem: -150.778 92G<7.92485 54.1132 374.425 420.613> 479.778 20G<66.3868 112.575>
LayerCount: 2
Fore
SplineSet
64.2216796875 478.528320312 m 1
 101.028320312 499.778320312 l 1
 122.278320312 462.971679688 l 1
 172.370117188 370.203125 l 1
 295.721679688 615.528320312 l 1
 332.528320312 636.778320312 l 1
 353.778320312 599.971679688 l 1
 205.028320312 300.221679688 l 1
 422.778320312 -150.528320312 l 1
 385.971679688 -171.778320312 l 1
 364.721679688 -134.971679688 l 1
 179.629882812 245.796875 l 1
 56.2783203125 -37.5283203125 l 1
 19.4716796875 -58.7783203125 l 1
 -1.7783203125 -21.9716796875 l 1
 146.971679688 315.778320312 l 1
 64.2216796875 478.528320312 l 1
EndSplineSet
Validated: 1
EndChar

StartChar: Y
Encoding: 89 89 24
Width: 413
Flags: W
HStem: -196.778 21G<307.425 353.613> 121.707 59.249<210.213 297.722> 478.778 20G<2.38678 48.5751 299.887 346.075>
VStem: 0.22168 58.0566<339.73 461.972> 297.722 58.0566<-159.972 123.543 180.956 461.972>
LayerCount: 2
Fore
SplineSet
355.778320312 -175.528320312 m 1
 318.971679688 -196.778320312 l 1
 297.721679688 -159.971679688 l 1
 297.721679688 121.70703125 l 1
 205.234375 126.842773438 116.068359375 166.138671875 65.109375 254.401367188 c 2
 43.859375 291.20703125 l 2
 16.556640625 338.498046875 0.2216796875 399.845703125 0.2216796875 477.528320312 c 1
 37.0283203125 498.778320312 l 1
 58.2783203125 461.971679688 l 1
 58.2783203125 394.29296875 70.6767578125 339.012695312 91.9248046875 294.625 c 1
 140.977539062 223.435546875 217.333984375 188.838867188 297.721679688 180.956054688 c 1
 297.721679688 477.528320312 l 1
 334.528320312 498.778320312 l 1
 355.778320312 461.971679688 l 1
 355.778320312 142.372070312 l 1
 355.778320312 -175.528320312 l 1
EndSplineSet
Validated: 1
EndChar

StartChar: Z
Encoding: 90 90 25
Width: 434
Flags: W
HStem: -196.778 58.0566<92.4541 335.972> 440.722 58.0566<54.0283 297.546>
LayerCount: 2
Fore
SplineSet
0.0458984375 -196.778320312 m 1
 297.545898438 440.721679688 l 1
 38.4716796875 440.721679688 l 1
 17.2216796875 477.528320312 l 1
 54.0283203125 498.778320312 l 1
 389.954101562 498.778320312 l 1
 92.4541015625 -138.721679688 l 1
 351.528320312 -138.721679688 l 1
 372.778320312 -175.528320312 l 1
 335.971679688 -196.778320312 l 1
 0.0458984375 -196.778320312 l 1
EndSplineSet
Validated: 1
EndChar

StartChar: a
Encoding: 97 97 26
Width: 409
Flags: W
HStem: 80 21G<0 18.625 307.333 349.476> 441 58<58 263>
VStem: 0 58<221 441> 298 53<157 400>
LayerCount: 2
Fore
SplineSet
0 80 m 5
 0 499 l 5
 118.666992188 499 232.333007812 499 351 499 c 5
 351 380 351 261 351 142 c 5
 319 121 l 5
 298 157 l 5
 298 400 l 5
 0 80 l 5
58 221 m 5
 263 441 l 5
 58 441 l 5
 58 221 l 5
EndSplineSet
Validated: 1
EndChar

StartChar: z
Encoding: 122 122 27
Width: 483
Flags: W
HStem: 122 58<127 353> 441 58<71 298>
LayerCount: 2
Fore
SplineSet
1 122 m 1
 298 441 l 1
 56 441 l 1
 34 478 l 1
 71 499 l 1
 424 499 l 1
 127 180 l 1
 369 180 l 1
 390 143 l 1
 353 122 l 1
 1 122 l 1
EndSplineSet
Validated: 1
EndChar

StartChar: e
Encoding: 101 101 28
Width: 423
Flags: W
HStem: 124 58<93 319> 441 58<58 263>
VStem: 0 58<221 441>
LayerCount: 2
Fore
SplineSet
58 441 m 1
 58 221 l 1
 263 441 l 1
 58 441 l 1
93 182 m 1
 335 182 l 1
 356 145 l 1
 319 124 l 1
 21 124 l 1
 0 161 l 1
 0 478 l 1
 37 499 l 1
 335 499 l 1
 356 462 l 1
 93 182 l 1
EndSplineSet
Validated: 1
EndChar

StartChar: r
Encoding: 114 114 29
Width: 262
Flags: W
HStem: 121.097 21G<10.1749 56.3632>
VStem: 0.47168 58.0566<157.903 345.497 404.918 461.097>
LayerCount: 2
Fore
SplineSet
0.4716796875 476.653320312 m 1
 37.2783203125 497.903320312 l 1
 58.5283203125 461.096679688 l 1
 58.5283203125 404.91796875 l 1
 153.471679688 476.653320312 l 1
 190.278320312 497.903320312 l 1
 211.528320312 461.096679688 l 1
 58.5283203125 345.497070312 l 1
 58.5283203125 142.346679688 l 1
 21.7216796875 121.096679688 l 1
 0.4716796875 157.903320312 l 1
 0.4716796875 361.052734375 l 1
 0.4716796875 476.653320312 l 1
EndSplineSet
Validated: 1
EndChar

StartChar: g
Encoding: 103 103 30
Width: 416
Flags: W
HStem: -196.778 21G<7.92485 19.4717> 440.722 58.0566<88.9258 295.722>
VStem: 295.722 58.0566<27.4504 143.365 217.974 440.722>
LayerCount: 2
Fore
SplineSet
295.721679688 440.721679688 m 1
 88.92578125 440.721679688 l 1
 295.721679688 217.973632812 l 1
 295.721679688 440.721679688 l 1
353.778320312 141.521484375 m 2
 353.778320312 -10.650390625 285.245117188 -89.78515625 213.96484375 -130.938476562 c 2
 177.159179688 -152.188476562 l 2
 99.927734375 -196.778320312 19.4716796875 -196.778320312 19.4716796875 -196.778320312 c 1
 -1.7783203125 -159.971679688 l 1
 35.0283203125 -138.721679688 l 1
 35.0283203125 -138.721679688 102.872070312 -138.721679688 173.763671875 -104.194335938 c 1
 236.068359375 -61.8837890625 291.88671875 12.5205078125 295.533203125 143.365234375 c 1
 19.4716796875 440.721679688 l 1
 35.0283203125 498.778320312 l 1
 332.528320312 498.778320312 l 1
 353.778320312 461.971679688 l 1
 353.778320312 141.521484375 l 2
EndSplineSet
Validated: 1
EndChar

StartChar: m
Encoding: 109 109 31
Width: 409
Flags: W
HStem: 120.396 21G<8.92485 55.1132 306.425 352.613> 481.354 19.25G<1.38678 54.3986 280.753 354.778>
VStem: -0.77832 58.0566<160.604 402.476> 296.722 58.0566<157.203 416.594>
LayerCount: 2
Fore
SplineSet
175.169921875 349.118164062 m 1
 296.721679688 501.353515625 l 1
 354.778320312 485.796875 l 1
 354.778320312 141.646484375 l 1
 317.971679688 120.396484375 l 1
 296.721679688 157.203125 l 1
 296.721679688 416.59375 l 1
 204.837890625 303.146484375 l 1
 168.032226562 281.896484375 l 1
 57.2783203125 402.475585938 l 1
 57.2783203125 145.046875 l 1
 20.4716796875 123.796875 l 1
 -0.7783203125 160.603515625 l 1
 -0.7783203125 479.353515625 l 1
 36.0283203125 500.603515625 l 1
 175.169921875 349.118164062 l 1
EndSplineSet
Validated: 1
EndChar

StartChar: y
Encoding: 121 121 32
Width: 405
Flags: W
HStem: -195.778 21G<8.92485 91.0506> 479.778 20G<1.38678 54.7448 298.887 345.075>
VStem: 296.722 58.0566<29.4565 146.733 221.208 462.972>
LayerCount: 2
Fore
SplineSet
20.4716796875 441.721679688 m 1
 -0.7783203125 478.528320312 l 1
 36.0283203125 499.778320312 l 1
 296.721679688 221.208007812 l 1
 296.721679688 478.528320312 l 1
 333.528320312 499.778320312 l 1
 354.778320312 462.971679688 l 1
 354.778320312 145.072265625 l 2
 354.778320312 -8.962890625 285.672851562 -88.7587890625 214.07421875 -130.096679688 c 2
 177.268554688 -151.346679688 l 2
 100.310546875 -195.778320312 20.4716796875 -195.778320312 20.4716796875 -195.778320312 c 1
 -0.7783203125 -158.971679688 l 1
 36.0283203125 -137.721679688 l 2
 36.0283203125 -137.721679688 103.307617188 -137.721679688 173.876953125 -103.349609375 c 1
 236.526367188 -60.8125 292.849609375 14.255859375 296.53125 146.733398438 c 1
 20.4716796875 441.721679688 l 1
EndSplineSet
Validated: 1
EndChar

StartChar: b
Encoding: 98 98 33
Width: 454
Flags: W
HStem: 81.0557 21G<0.25293 18.9196> 440.759 58.0557<58.3096 263.4> 688.765 20G<2.41803 48.6064>
VStem: 0.25293 58.0566<221.018 440.759 498.814 671.958>
LayerCount: 2
Fore
SplineSet
390.161132812 498.814453125 m 1
 0.2529296875 81.0556640625 l 1
 0.2529296875 687.514648438 l 1
 37.0595703125 708.764648438 l 1
 58.3095703125 671.958007812 l 1
 58.3095703125 498.814453125 l 1
 390.161132812 498.814453125 l 1
58.3095703125 221.017578125 m 1
 263.400390625 440.758789062 l 1
 58.3095703125 440.758789062 l 1
 58.3095703125 221.017578125 l 1
EndSplineSet
Validated: 1
EndChar

StartChar: c
Encoding: 99 99 34
Width: 417
Flags: W
HStem: 125.097 58.0566<92.0801 315.521> 481.903 20G<294.337 340.525>
LayerCount: 2
Fore
SplineSet
292.171875 480.653320312 m 1
 328.978515625 501.903320312 l 1
 350.228515625 465.096679688 l 1
 92.080078125 183.153320312 l 1
 331.078125 183.153320312 l 1
 352.328125 146.346679688 l 1
 315.521484375 125.096679688 l 1
 20.921875 125.096679688 l 1
 -0.328125 161.903320312 l 1
 292.171875 480.653320312 l 1
EndSplineSet
Validated: 1
EndChar

StartChar: d
Encoding: 100 100 35
Width: 458
Flags: W
HStem: 125 58<126 332> 693 20G<332.762 379.351>
VStem: 332 58<182 412 499 676>
LayerCount: 2
Fore
SplineSet
126 183 m 5
 332 182 l 5
 332 412 l 5
 126 183 l 5
390 124 m 5
 0 125 l 5
 332 499 l 5
 331 692 l 5
 368 713 l 5
 389 676 l 5
 390 484 l 5
 390 124 l 5
EndSplineSet
Validated: 1
EndChar

StartChar: f
Encoding: 102 102 36
Width: 406
Flags: W
HStem: -194.778 21G<-68.9501 -57.4033> 282.072 58.0557<35.7129 148.847 209.488 280.087> 478.778 20G<256.77 347.293>
VStem: 148.847 58.0566<32.5106 282.072 340.128 389.514>
LayerCount: 2
Fore
SplineSet
20.1572265625 282.072265625 m 1
 -1.0927734375 318.877929688 l 1
 35.712890625 340.127929688 l 1
 149.580078125 340.127929688 l 1
 154.716796875 403.831054688 186.069335938 438.422851562 218.604492188 457.20703125 c 2
 255.41015625 478.45703125 l 2
 294.071289062 500.778320312 341.403320312 498.778320312 341.403320312 498.778320312 c 1
 351.653320312 463.971679688 l 1
 311.197265625 446.971679688 l 1
 311.197265625 446.971679688 293.522460938 437.622070312 261.907226562 424.797851562 c 1
 238.888671875 406.481445312 216.397460938 383.422851562 209.48828125 340.127929688 c 1
 295.643554688 340.127929688 l 1
 316.893554688 303.322265625 l 1
 280.086914062 282.072265625 l 1
 206.903320312 282.072265625 l 1
 206.903320312 145.221679688 l 2
 206.903320312 -8.19140625 135.98828125 -87.767578125 64.4951171875 -129.043945312 c 2
 27.689453125 -150.293945312 l 2
 -49.359375 -194.778320312 -57.4033203125 -194.778320312 -57.4033203125 -194.778320312 c 1
 -78.6533203125 -157.971679688 l 1
 -41.8466796875 -136.721679688 l 1
 -41.8466796875 -136.721679688 -46.3798828125 -136.721679688 24.296875 -102.297851562 c 1
 88.9853515625 -58.3740234375 148.846679688 20.205078125 148.846679688 160.778320312 c 2
 148.846679688 282.072265625 l 1
 20.1572265625 282.072265625 l 1
EndSplineSet
Validated: 33
EndChar

StartChar: h
Encoding: 104 104 37
Width: 432
Flags: W
HStem: 122.622 21G<9.29954 55.4882 304.442 346.663> 689.378 20G<1.76178 47.9505>
VStem: -0.40332 58.0566<159.428 414.492 498.98 672.572>
LayerCount: 2
Fore
SplineSet
57.6533203125 414.4921875 m 1
 57.6533203125 143.872070312 l 1
 20.8466796875 122.622070312 l 1
 -0.4033203125 159.427734375 l 1
 -0.4033203125 500.177734375 l 1
 -0.4033203125 688.127929688 l 1
 36.4033203125 709.377929688 l 1
 57.6533203125 672.572265625 l 1
 57.6533203125 498.98046875 l 1
 338.153320312 180.677734375 l 1
 361.403320312 154.872070312 l 1
 322.596679688 122.622070312 l 1
 57.6533203125 414.4921875 l 1
EndSplineSet
Validated: 1
EndChar

StartChar: i
Encoding: 105 105 38
Width: 124
Flags: W
HStem: 123.097 21G<9.67485 55.8632> 479.903 20G<2.13678 48.3251>
VStem: -0.0283203 58.0566<159.903 463.097>
LayerCount: 2
Fore
SplineSet
58.0283203125 144.346679688 m 1
 21.2216796875 123.096679688 l 1
 -0.0283203125 159.903320312 l 1
 -0.0283203125 478.653320312 l 1
 36.7783203125 499.903320312 l 1
 58.0283203125 463.096679688 l 1
 58.0283203125 144.346679688 l 1
EndSplineSet
Validated: 1
EndChar

StartChar: j
Encoding: 106 106 39
Width: 266
Flags: W
HStem: -41 21G<12.5 43> 480 20G<145.714 191.892>
VStem: 147 58<97.3824 463>
LayerCount: 2
Fore
SplineSet
206 141 m 6
 206 75 121 26 76 -7 c 6
 43 -32 l 6
 27 -44 25 -41 25 -41 c 5
 0 -1 l 5
 36 19 l 6
 80 47 148 99 148 156 c 6
 147 268 l 1
 144 479 l 1
 180 500 l 1
 202 463 l 1
 205 253 l 1
 206 141 l 6
EndSplineSet
Validated: 1
EndChar

StartChar: k
Encoding: 107 107 40
Width: 420
Flags: W
HStem: 82.2803 21G<0.22168 18.8884 300.08 353.613> 480.039 20G<299.887 346.075> 692.539 20G<2.38678 48.5755>
VStem: 0.22168 58.0566<222.242 675.733>
LayerCount: 2
Fore
SplineSet
0.2216796875 82.2802734375 m 1
 0.2216796875 691.2890625 l 1
 37.0283203125 712.5390625 l 1
 58.2783203125 675.733398438 l 1
 58.2783203125 222.2421875 l 1
 147.782226562 318.139648438 l 1
 176.079101562 348.458007812 l 1
 297.721679688 478.7890625 l 1
 334.528320312 500.0390625 l 1
 355.778320312 463.233398438 l 1
 212.462890625 309.681640625 l 1
 334.528320312 180.58984375 l 1
 355.778320312 143.783203125 l 1
 318.971679688 122.533203125 l 1
 177.541015625 272.264648438 l 1
 0.2216796875 82.2802734375 l 1
EndSplineSet
Validated: 1
EndChar

StartChar: l
Encoding: 108 108 41
Width: 202
Flags: W
HStem: -70.0283 21G<-0.0078125 78.1572> 30.8779 20G<86.7169 132.906> 694.028 20G<2.15723 48.3447>
VStem: -0.0078125 58.0557<7.73145 677.222>
LayerCount: 2
Fore
SplineSet
58.0478515625 7.7314453125 m 1
 84.5517578125 29.6279296875 l 1
 121.358398438 50.8779296875 l 1
 142.608398438 14.072265625 l 1
 58.0478515625 -70.0283203125 l 1
 -0.0078125 -54.4716796875 l 1
 -0.0078125 692.778320312 l 1
 36.7978515625 714.028320312 l 1
 58.0478515625 677.221679688 l 1
 58.0478515625 7.7314453125 l 1
EndSplineSet
Validated: 1
EndChar

StartChar: n
Encoding: 110 110 42
Width: 409
Flags: W
HStem: 124.467 20.1494G<9.92454 56.1132 307.425 353.613> 479.312 20.9609G<2.38678 48.5755 263.601 356.567>
VStem: 0.22168 58.0566<161.272 380.395 434.762 463.467> 297.722 58.0566<160.423 431.178>
LayerCount: 2
Fore
SplineSet
58.2783203125 434.76171875 m 1
 355.778320312 499.311523438 l 1
 357.356445312 378.830078125 337.608398438 265.34765625 355.778320312 144.866210938 c 1
 318.971679688 123.616210938 l 1
 297.721679688 160.422851562 l 1
 297.721679688 431.177734375 l 1
 58.2783203125 380.39453125 l 1
 58.2783203125 145.716796875 l 1
 21.4716796875 124.466796875 l 1
 0.2216796875 161.272460938 l 1
 0.2216796875 408.47265625 l 1
 0.2216796875 420.994140625 l 1
 0.2216796875 479.022460938 l 1
 37.0283203125 500.272460938 l 1
 58.2783203125 463.466796875 l 1
 58.2783203125 434.76171875 l 1
EndSplineSet
Validated: 33
EndChar

StartChar: o
Encoding: 111 111 43
Width: 419
Flags: W
HStem: 122.09 58.0557<113.987 244.399> 440.854 58.0557<116.899 247.051>
VStem: 0.22168 58.0566<239.103 382.999> 297.722 58.0566<232.319 384.711>
LayerCount: 2
Fore
SplineSet
355.778320312 299.747070312 m 4
 355.778320312 241.77734375 325.9453125 187.58984375 279.57421875 160.817382812 c 6
 242.768554688 139.567382812 l 6
 223.556640625 128.475585938 201.506835938 122.08984375 177.5625 122.08984375 c 4
 119.30859375 122.08984375 69.8251953125 153.829101562 42.9638671875 200.35546875 c 6
 21.7138671875 237.161132812 l 6
 8.0244140625 260.87109375 0.2216796875 288.484375 0.2216796875 317.853515625 c 4
 0.2216796875 377.061523438 31.9345703125 430.32421875 79.66015625 457.877929688 c 6
 116.465820312 479.127929688 l 6
 138.227539062 491.69140625 163.317382812 498.91015625 190.248046875 498.91015625 c 4
 243.463867188 498.91015625 286.083007812 468.766601562 310.9375 425.717773438 c 6
 332.1875 388.911132812 l 6
 347.30859375 362.721679688 355.778320312 331.725585938 355.778320312 299.747070312 c 4
174.692382812 440.854492188 m 4
 155.321289062 440.854492188 136.90234375 437.119140625 119.989257812 430.346679688 c 5
 82.298828125 400.852539062 58.2783203125 353.826171875 58.2783203125 302.296875 c 4
 58.2783203125 280.517578125 62.5693359375 259.703125 70.3701171875 240.729492188 c 5
 98.68359375 204.053710938 142.52734375 180.145507812 193.119140625 180.145507812 c 4
 209.470703125 180.145507812 224.939453125 183.124023438 239.223632812 188.545898438 c 5
 275.34375 217.724609375 297.721679688 265.095703125 297.721679688 315.302734375 c 4
 297.721679688 339.759765625 292.767578125 363.642578125 283.673828125 385.239257812 c 5
 258.094726562 418.696289062 220.380859375 440.854492188 174.692382812 440.854492188 c 4
EndSplineSet
Validated: 1
EndChar

StartChar: p
Encoding: 112 112 44
Width: 421
Flags: W
HStem: -197.778 21G<9.67485 55.8632> 124.09 58.0557<113.923 244.399> 442.854 58.0557<116.899 247.051>
VStem: -0.0283203 58.0566<-160.972 180.63 243.62 384.659 444.744 461.972> 297.722 58.0566<234.319 386.711>
LayerCount: 2
Fore
SplineSet
58.0283203125 -176.528320312 m 1
 21.2216796875 -197.778320312 l 1
 -0.0283203125 -160.971679688 l 1
 -0.0283203125 477.528320312 l 1
 36.7783203125 498.778320312 l 1
 58.0283203125 461.971679688 l 1
 58.0283203125 444.743904883 l 1
 64.7853089586 450.393767443 72.017412986 455.465496932 79.66015625 459.877929688 c 2
 116.465820312 481.127929688 l 2
 138.227539062 493.69140625 163.317382812 500.91015625 190.248046875 500.91015625 c 0
 243.463867188 500.91015625 286.083007812 470.766601562 310.9375 427.717773438 c 2
 332.1875 390.911132812 l 2
 347.30859375 364.721679688 355.778320312 333.725585938 355.778320312 301.747070312 c 0
 355.778320312 243.77734375 325.9453125 189.58984375 279.57421875 162.817382812 c 2
 242.768554688 141.567382812 l 2
 223.556640625 130.475585938 201.506835938 124.08984375 177.5625 124.08984375 c 0
 128.910569982 124.08984375 86.3761512803 146.228273245 58.0283203125 180.629843351 c 1
 58.0283203125 -176.528320312 l 1
174.692382812 442.854492188 m 0
 155.321289062 442.854492188 136.90234375 439.119140625 119.989257812 432.346679688 c 1
 82.298828125 402.852539062 58.2783203125 355.826171875 58.2783203125 304.296875 c 0
 58.2783203125 282.517578125 62.5693359375 261.703125 70.3701171875 242.729492188 c 1
 98.68359375 206.053710938 142.52734375 182.145507812 193.119140625 182.145507812 c 0
 209.470703125 182.145507812 224.939453125 185.124023438 239.223632812 190.545898438 c 1
 275.34375 219.724609375 297.721679688 267.095703125 297.721679688 317.302734375 c 0
 297.721679688 341.759765625 292.767578125 365.642578125 283.673828125 387.239257812 c 1
 258.094726562 420.696289062 220.380859375 442.854492188 174.692382812 442.854492188 c 0
EndSplineSet
Validated: 1
EndChar

StartChar: q
Encoding: 113 113 45
Width: 416
Flags: W
HStem: -199 21G<299.619 343.351> 124 58<111.86 241.722> 443 58<108.755 238.835>
VStem: -0 58<234.543 386.662> 298 55<-162 181 243.892 384.69 445 463>
LayerCount: 2
Fore
SplineSet
298 -178 m 1
 298 181 l 1
 269 146 227 124 178 124 c 0
 154 124 132 130 113 142 c 2
 76 163 l 2
 30 190 -0 244 -0 302 c 0
 -0 334 8 365 24 391 c 2
 45 428 l 2
 70 471 112 501 166 501 c 0
 192 501 218 494 239 481 c 2
 276 460 l 2
 284 455 291 450 298 445 c 1
 298 463 l 1
 316 500 l 1
 353 479 l 1
 353 -162 l 1
 332 -199 l 1
 298 -178 l 1
181 443 m 0
 135 443 98 421 72 387 c 1
 63 366 58 342 58 317 c 0
 58 267 80 220 117 191 c 1
 131 185 146 182 163 182 c 0
 213 182 257 206 285 243 c 1
 293 262 297 283 297 304 c 0
 297 356 273 403 236 432 c 1
 219 439 200 443 181 443 c 0
EndSplineSet
Validated: 1
EndChar

StartChar: s
Encoding: 115 115 46
Width: 422
Flags: W
HStem: 122.844 58.0566<127.028 297.722> 337.955 57.9346<58.2783 297.722> 441.594 58.0566<58.2783 228.972>
VStem: 0.22168 58.0566<395.89 441.594> 297.722 53.0566<178.666 337.104>
LayerCount: 2
Fore
SplineSet
350.778320312 395.0390625 m 1
 350.778320312 123.978515625 l 1
 111.471679688 122.84375 l 1
 90.2216796875 159.650390625 l 1
 127.028320312 180.900390625 l 1
 297.721679688 178.666015625 l 1
 297.721679688 337.104492188 l 1
 0.2216796875 337.955078125 l 1
 0.2216796875 499.650390625 l 1
 238.75 499.806640625 l 1
 247.581054688 486.950195312 258.646484375 473.341796875 260 463 c 1
 228.971679688 441.59375 l 1
 58.2783203125 441.59375 l 1
 58.2783203125 395.889648438 l 1
 350.778320312 395.0390625 l 1
EndSplineSet
Validated: 1
EndChar

StartChar: t
Encoding: 116 116 47
Width: 348
Flags: W
HStem: -0.453125 21G<146.162 226.985> 102.753 20G<246.681 292.869> 440.646 58.0566<36.7686 146.162>
VStem: 146.162 58.0557<76.3076 440.646 498.703 559.646>
LayerCount: 2
Fore
SplineSet
147.862304688 575.203125 m 1
 184.66796875 596.453125 l 1
 205.91796875 559.646484375 l 1
 204.217773438 461.896484375 l 1
 204.217773438 76.3076171875 l 1
 244.515625 101.502929688 l 1
 281.322265625 122.752929688 l 1
 302.572265625 85.947265625 l 1
 204.217773438 -0.453125 l 1
 146.162109375 15.103515625 l 1
 146.162109375 440.646484375 l 1
 21.2119140625 440.646484375 l 1
 -0.0380859375 477.453125 l 1
 36.7685546875 498.703125 l 1
 146.53125 498.703125 l 1
 147.862304688 575.203125 l 1
EndSplineSet
Validated: 1
EndChar

StartChar: u
Encoding: 117 117 48
Width: 416
Flags: W
HStem: 123.631 20.1611G<0.22168 67.9366 308.685 351.613> 480.298 20G<2.38678 48.5751 303.534 344.075>
VStem: 0.22168 58.0566<188.408 463.491> 301.722 52.0566<159.598 212.681 265.715 463.491>
LayerCount: 2
Fore
SplineSet
353.778320312 144.041992188 m 1
 316.971679688 122.791992188 l 1
 301.721679688 159.59765625 l 1
 301.721679688 212.680664062 l 1
 0.2216796875 123.630859375 l 1
 0.2216796875 479.047851562 l 1
 37.0283203125 500.297851562 l 1
 58.2783203125 463.491210938 l 1
 58.2783203125 188.408203125 l 1
 301.721679688 265.71484375 l 1
 301.721679688 479.047851562 l 1
 332.528320312 500.297851562 l 1
 353.778320312 463.491210938 l 1
 353.778320312 240.791992188 l 1
 353.778320312 231.424804688 l 1
 353.778320312 144.041992188 l 1
EndSplineSet
Validated: 1
EndChar

StartChar: v
Encoding: 118 118 49
Width: 417
Flags: W
HStem: 83.1426 21G<337.161 355.778> 480.339 20G<2.38678 56.0738 305.534 346.075>
VStem: 303.722 52.0566<220.279 463.533>
LayerCount: 2
Fore
SplineSet
355.778320312 83.142578125 m 1
 21.4716796875 442.283203125 l 1
 0.2216796875 479.088867188 l 1
 37.0283203125 500.338867188 l 1
 303.721679688 220.279296875 l 1
 303.721679688 479.088867188 l 1
 334.528320312 500.338867188 l 1
 355.778320312 463.533203125 l 1
 355.778320312 83.142578125 l 1
EndSplineSet
Validated: 1
EndChar

StartChar: w
Encoding: 119 119 50
Width: 423
Flags: W
HStem: 123.197 20.0498G<0.22168 74.5155 299.618 353.613>
VStem: 0.22168 58.0566<208.956 460.947> 297.722 58.0566<216.115 460.947>
LayerCount: 2
Fore
SplineSet
58.2783203125 208.956054688 m 1
 146.98828125 315.002929688 l 1
 183.794921875 336.252929688 l 1
 297.721679688 216.115234375 l 1
 297.721679688 476.502929688 l 1
 334.528320312 497.752929688 l 1
 355.778320312 460.947265625 l 1
 355.778320312 143.497070312 l 1
 318.971679688 122.247070312 l 1
 176.79296875 269.176757812 l 1
 58.2783203125 123.197265625 l 1
 0.2216796875 138.752929688 l 1
 0.2216796875 476.502929688 l 1
 37.0283203125 497.752929688 l 1
 58.2783203125 460.947265625 l 1
 58.2783203125 208.956054688 l 1
EndSplineSet
Validated: 1
EndChar

StartChar: x
Encoding: 120 120 51
Width: 440
Flags: W
HStem: 122.722 21G<10.7452 56.9326 401.039 454.393> 479.528 20G<300.707 346.894>
LayerCount: 2
Fore
SplineSet
59.09765625 143.971679688 m 1
 22.2919921875 122.721679688 l 1
 1.0419921875 159.528320312 l 1
 143.296875 311.944335938 l 1
 97.658203125 360.721679688 l 1
 76.408203125 397.528320312 l 1
 113.21484375 418.778320312 l 1
 178.19140625 349.331054688 l 1
 298.541992188 478.278320312 l 1
 335.34765625 499.528320312 l 1
 356.59765625 462.721679688 l 1
 214.524414062 310.5 l 1
 435.307617188 74.5283203125 l 1
 456.557617188 37.7216796875 l 1
 419.751953125 16.4716796875 l 1
 179.62890625 273.112304688 l 1
 59.09765625 143.971679688 l 1
EndSplineSet
Validated: 1
EndChar

StartChar: exclam
Encoding: 33 33 52
Width: 167
Flags: W
HStem: 123.818 75.3633<5.34375 66.6371>
VStem: 0.444336 71.1113<127.901 194.337>
LayerCount: 2
Fore
SplineSet
36.0869140625 659.078125 m 1
 134.146484375 659.078125 l 1
 58.6865234375 238.921875 l 1
 22.6298828125 254.478515625 l 1
 36.0869140625 659.078125 l 1
71.5556640625 159.349609375 m 0
 71.5556640625 147.755859375 65.5888671875 136.91796875 56.314453125 131.563476562 c 2
 48.9541015625 127.313476562 l 2
 45.111328125 125.094726562 40.701171875 123.818359375 35.912109375 123.818359375 c 0
 24.26171875 123.818359375 14.365234375 130.166015625 8.9931640625 139.470703125 c 2
 4.7431640625 146.83203125 l 2
 2.0048828125 151.57421875 0.4443359375 157.096679688 0.4443359375 162.970703125 c 0
 0.4443359375 174.8125 6.787109375 185.46484375 16.33203125 190.975585938 c 2
 23.693359375 195.225585938 l 2
 28.0458984375 197.73828125 33.0634765625 199.181640625 38.44921875 199.181640625 c 0
 49.0927734375 199.181640625 57.6162109375 193.153320312 62.587890625 184.543945312 c 2
 66.837890625 177.182617188 l 2
 69.861328125 171.944335938 71.5556640625 165.745117188 71.5556640625 159.349609375 c 0
EndSplineSet
Validated: 524289
EndChar

StartChar: quotedbl
Encoding: 34 34 53
Width: 274
Flags: W
HStem: 439.647 139.353
VStem: 0.447266 81.9746<507.067 564.237> 119.537 81.9746<507.071 564.241>
LayerCount: 2
Fore
SplineSet
169 579 m 5
 198.515625 564.241210938 l 5
 201.51171875 514.33203125 l 5
 129.510742188 439.647460938 l 5
 119.537109375 465.094726562 l 5
 119.08984375 576.00390625 l 5
 169 579 l 5
49.91015625 578.99609375 m 5
 79.42578125 564.237304688 l 5
 82.421875 514.328125 l 5
 10.4208984375 439.643554688 l 5
 0.447265625 465.090820312 l 5
 0 576 l 5
 49.91015625 578.99609375 l 5
EndSplineSet
Validated: 8912897
EndChar

StartChar: zero
Encoding: 48 48 55
Width: 408
Flags: W
HStem: -164.62 63.8604<129.813 255.562> 535.694 63.8623<130.074 254.396>
VStem: 0.382812 63.8623<9.21586 406.384> 327.831 63.8613<30.9776 411.746>
LayerCount: 2
Fore
SplineSet
179.966796875 535.694335938 m 0
 164.08984375 535.694335938 149.813476562 533.430664062 136.978515625 529.203125 c 1
 122.331054688 516.17578125 110.595703125 499.41796875 101.204101562 480.006835938 c 1
 311.963867188 28.3798828125 l 1
 324.588867188 83.6767578125 327.831054688 146.760742188 327.831054688 204.614257812 c 0
 327.831054688 211.680664062 327.782226562 218.668945312 327.696289062 225.556640625 c 0
 326.6484375 310.453125 320.606445312 410.330078125 288.829101562 481.725585938 c 1
 263.834960938 514.935546875 228.869140625 535.694335938 179.966796875 535.694335938 c 0
197.078125 599.556640625 m 0
 254.666992188 599.556640625 292.927734375 570.768554688 318.336914062 526.758789062 c 2
 341.711914062 486.272460938 l 2
 383.133789062 414.526367188 390.399414062 302.326171875 391.55859375 208.444335938 c 0
 391.643554688 201.55859375 391.692382812 194.569335938 391.692382812 187.502929688 c 0
 391.692382812 103.39453125 384.83984375 8.232421875 352.265625 -57.982421875 c 1
 391.55859375 -142.181640625 l 1
 351.071289062 -165.556640625 l 1
 327.696289062 -125.069335938 l 1
 318.66015625 -105.705078125 l 1
 311.208984375 -112.944335938 303.025390625 -119.231445312 294.036132812 -124.420898438 c 2
 253.548828125 -147.795898438 l 2
 234.877929688 -158.576171875 212.73828125 -164.620117188 186.51171875 -164.620117188 c 0
 131.158203125 -164.620117188 94.7685546875 -137.693359375 70.787109375 -96.15625 c 2
 47.412109375 -55.669921875 l 2
 6.17578125 15.7548828125 1.62890625 130.374023438 0.4462890625 225.556640625 c 0
 0.408203125 231.797851562 0.3828125 238.129882812 0.3828125 244.532226562 c 0
 0.3828125 330.7421875 4.80078125 429.859375 37.3427734375 497.1171875 c 1
 0.4462890625 576.181640625 l 1
 40.93359375 599.556640625 l 1
 51.0439453125 581.252929688 62.5224609375 564.31640625 71.1103515625 544.4921875 c 1
 77.546875 550.473632812 84.5595703125 555.719726562 92.2021484375 560.1328125 c 2
 132.689453125 583.5078125 l 2
 150.513671875 593.798828125 171.760742188 599.556640625 197.078125 599.556640625 c 0
64.2451171875 227.419921875 m 0
 64.2451171875 221.017578125 64.26953125 214.686523438 64.30859375 208.444335938 c 0
 65.376953125 122.418945312 69.193359375 20.517578125 100.360351562 -51.021484375 c 1
 123.983398438 -81.7431640625 157.107421875 -100.759765625 203.623046875 -100.759765625 c 0
 220.5078125 -100.759765625 235.698242188 -98.25390625 249.360351562 -93.591796875 c 1
 265.322265625 -79.7275390625 278.140625 -61.736328125 288.405273438 -40.8720703125 c 1
 78.2919921875 409.368164062 l 1
 66.3427734375 352.354492188 64.2451171875 286.823242188 64.2451171875 227.419921875 c 0
EndSplineSet
Validated: 524289
EndChar

StartChar: one
Encoding: 49 49 56
Width: 266
Flags: W
HStem: -196.164 58.0557<35.7979 147.742>
VStem: 147.742 58.0557<-138.108 500.383>
LayerCount: 2
Fore
SplineSet
147.7421875 -138.108398438 m 1
 147.7421875 500.3828125 l 1
 55.8583984375 401.935546875 l 1
 19.0517578125 380.685546875 l 1
 -2.1982421875 417.491210938 l 1
 205.797851562 640.344726562 l 1
 205.797851562 -196.1640625 l 1
 20.2421875 -196.1640625 l 1
 -1.0078125 -159.358398438 l 1
 35.7978515625 -138.108398438 l 1
 147.7421875 -138.108398438 l 1
EndSplineSet
Validated: 524289
EndChar

StartChar: two
Encoding: 50 50 57
Width: 422
Flags: W
HStem: -197.009 58.0557<59.7461 318.979>
VStem: 314.104 41.7686<424.074 548.24>
LayerCount: 2
Fore
SplineSet
0.2294921875 -197.008789062 m 1
 0.2294921875 -160.203125 l 2
 0.2294921875 -12.6728515625 65.234375 105.99609375 134.481445312 166.361328125 c 0
 209.168945312 231.470703125 305.791015625 355.881835938 314.103515625 548.240234375 c 1
 21.4794921875 385.69140625 l 1
 0.2294921875 422.497070312 l 1
 37.0361328125 443.747070312 l 1
 355.147460938 625.262695312 l 1
 355.416992188 606.036132812 355.872070312 539.884765625 355.872070312 520.536132812 c 0
 355.872070312 302.193359375 271.450195312 219.598632812 192.537109375 150.805664062 c 0
 129.368164062 95.7373046875 69.7275390625 -18.25390625 59.74609375 -138.953125 c 1
 334.536132812 -138.953125 l 1
 355.786132812 -175.758789062 l 1
 318.979492188 -197.008789062 l 1
 0.2294921875 -197.008789062 l 1
EndSplineSet
Validated: 524289
EndChar

StartChar: three
Encoding: 51 51 58
Width: 470
Flags: W
HStem: -196.778 21G<9.62972 21.499> 361.467 59.5752<199.303 297.009> 567.722 58.0566<37.0547 263.447>
VStem: 297.009 82.9912<171.001 361.467>
LayerCount: 2
Fore
SplineSet
380 385.478515625 m 2
 380 149.689453125 314.853815969 -42.5100732328 185.973632812 -116.919921875 c 2
 183.170144887 -124.179079349 149.16796875 -138.169921875 149.16796875 -138.169921875 c 2
 84.029296875 -175.778320312 21.4990234375 -196.778320312 21.4990234375 -196.778320312 c 1
 0.2490234375 -160.971679688 l 1
 37.0546875 -138.721679688 l 2
 37.0546875 -138.721679688 92 -111 201.998046875 0 c 1
 258 41 288.831054688 163.70703125 297.008789062 361.466796875 c 1
 74.0166015625 364.458007812 l 1
 263.447265625 567.721679688 l 1
 21.4990234375 567.721679688 l 1
 0.2490234375 604.528320312 l 1
 37.0546875 625.778320312 l 1
 390.10546875 625.778320312 l 1
 199.302734375 421.041992188 l 1
 380 422 l 1
 380 385.478515625 l 2
EndSplineSet
Validated: 524289
EndChar

StartChar: four
Encoding: 52 52 59
Width: 454
Flags: W
HStem: -194.778 21G<342.392 388.579> 279.394 58.1445<127.625 332.688>
VStem: 332.688 58.0557<-157.972 279.394 337.538 620.972>
LayerCount: 2
Fore
SplineSet
332.688476562 279.393554688 m 1
 0.8076171875 281.290039062 l 1
 184.958984375 476.728515625 l 1
 221.764648438 497.978515625 l 1
 243.014648438 461.171875 l 1
 127.625 338.709960938 l 1
 332.688476562 337.538085938 l 1
 332.688476562 636.528320312 l 1
 369.494140625 657.778320312 l 1
 390.744140625 620.971679688 l 1
 390.744140625 301.372070312 l 1
 390.744140625 279.061523438 l 1
 390.744140625 -173.528320312 l 1
 353.938476562 -194.778320312 l 1
 332.688476562 -157.971679688 l 1
 332.688476562 279.393554688 l 1
EndSplineSet
Validated: 524289
EndChar

StartChar: five
Encoding: 53 53 60
Width: 419
Flags: W
HStem: -196.778 21G<9.92485 21.4717> 340.271 58.2383<58.2783 297.243> 590.722 58.0557<58.2773 318.972>
VStem: 0.22168 58.0566<398.51 590.722> 297.243 58.5352<152.281 342.636>
LayerCount: 2
Fore
SplineSet
334.52734375 648.77734375 m 1
 355.77734375 611.971679688 l 1
 318.971679688 590.721679688 l 1
 58.27734375 590.721679688 l 1
 58.2783203125 398.509765625 l 5
 334.528320312 400.877929688 l 5
 355.778320312 364.072265625 l 5
 355.778320312 33.5205078125 244.549804688 -93.9140625 158.116210938 -143.817382812 c 2
 121.309570312 -165.067382812 l 2
 66.384765625 -196.778320312 21.4716796875 -196.778320312 21.4716796875 -196.778320312 c 1
 0.2216796875 -159.971679688 l 1
 37.0283203125 -138.721679688 l 1
 37.0283203125 -138.721679688 72.0966796875 -138.721679688 118.153320312 -116.84375 c 1
 197.82421875 -62.126953125 289.83203125 61.009765625 297.243164062 342.635742188 c 5
 21.4716796875 340.271484375 l 5
 0.2216796875 377.078125 l 5
 0.22265625 627.52734375 l 1
 37.02734375 648.77734375 l 1
 334.52734375 648.77734375 l 1
EndSplineSet
Validated: 524289
EndChar

StartChar: six
Encoding: 54 54 61
Width: 423
Flags: W
HStem: -82.8086 58.0557<112.627 241.822> 235.999 58.0557<111.327 241.418>
VStem: 0.213867 58.0645<35.0432 104.219 104.22 184.165> 297.73 58.0557<30.538 176.16>
LayerCount: 2
Fore
SplineSet
355.786132812 95.7822265625 m 0
 355.786132812 37.62890625 324.803710938 -15.9306640625 277.875976562 -43.0244140625 c 2
 241.069335938 -64.2744140625 l 2
 220.701171875 -76.0341796875 197.328125 -82.80859375 172.180664062 -82.80859375 c 0
 115.936523438 -82.80859375 71.4111328125 -51.51953125 45.609375 -6.8291015625 c 2
 24.359375 29.9765625 l 2
 8.921875 56.71484375 0.2138671875 88.046875 0.2138671875 121.383789062 c 0
 0.2138671875 122.094726562 0.21875 122.8046875 0.228515625 123.514648438 c 0
 1.1337890625 393.80078125 100.216796875 543.991210938 183.775390625 592.234375 c 2
 220.58203125 613.484375 l 2
 281.708984375 648.775390625 334.528320312 648.775390625 334.528320312 648.775390625 c 1
 355.778320312 611.969726562 l 1
 318.971679688 590.719726562 l 1
 318.971679688 590.719726562 276.576171875 590.719726562 223.79296875 565.340820312 c 1
 161.524414062 522.8828125 95.28515625 405.765625 69.4755859375 250.787109375 c 1
 71.4697265625 252.076171875 73.49609375 253.31640625 75.5546875 254.50390625 c 2
 112.360351562 275.75390625 l 2
 132.4765625 287.368164062 155.586914062 294.0546875 180.377929688 294.0546875 c 0
 237.875976562 294.0546875 285.685546875 261.833984375 312.268554688 215.791015625 c 2
 333.518554688 178.984375 l 2
 347.696289062 154.427734375 355.786132812 126.21484375 355.786132812 95.7822265625 c 0
164.822265625 235.999023438 m 0
 147.553710938 235.999023438 131.100585938 232.754882812 115.907226562 226.860351562 c 1
 81.203125 199.161132812 58.9326171875 155.424804688 58.2841796875 107.958007812 c 0
 58.2802734375 106.71484375 58.2783203125 105.46875 58.2783203125 104.219726562 c 2
 58.2763671875 104.21875 l 1
 58.4873046875 79.091796875 63.6337890625 55.3671875 72.8544921875 33.6240234375 c 1
 99.5 -1.439453125 139.10546875 -24.7529296875 187.736328125 -24.7529296875 c 0
 205.352539062 -24.7529296875 222.09765625 -21.4287109375 237.548828125 -15.39453125 c 1
 274.393554688 13.857421875 297.73046875 60.8671875 297.73046875 111.338867188 c 0
 297.73046875 134.2265625 293.185546875 155.577148438 284.916015625 175.419921875 c 1
 257.0859375 211.784179688 214.752929688 235.999023438 164.822265625 235.999023438 c 0
EndSplineSet
Validated: 524289
EndChar

StartChar: seven
Encoding: 55 55 62
Width: 431
Flags: W
HStem: -197.778 21G<9.44048 55.6288> 577.722 58.0566<57.7939 280.062>
VStem: -0.262695 58.0566<453.878 577.722>
LayerCount: 2
Fore
SplineSet
57.7939453125 577.721679688 m 1
 57.7939453125 438.322265625 l 1
 20.9873046875 417.072265625 l 1
 -0.2626953125 453.877929688 l 1
 -0.2626953125 635.778320312 l 1
 372.469726562 635.778320312 l 1
 57.7939453125 -176.528320312 l 1
 20.9873046875 -197.778320312 l 1
 -0.2626953125 -160.971679688 l 1
 280.061523438 577.721679688 l 1
 57.7939453125 577.721679688 l 1
EndSplineSet
Validated: 524289
EndChar

StartChar: eight
Encoding: 56 56 63
Width: 436
Flags: W
HStem: -28.8311 21G<164.53 198.376>
LayerCount: 2
Fore
SplineSet
178.975585938 -105.06640625 m 1
 371.01171875 107.30078125 l 1
 246.213867188 297.80859375 l 1
 349.109375 449.203125 l 1
 189.046875 640.689453125 l 1
 16.2822265625 444.65234375 l 1
 122.3828125 293.551757812 l 1
 1.3974609375 101.30859375 l 1
 178.975585938 -105.06640625 l 1
298.381835938 106.401367188 m 1
 181.018554688 -28.8310546875 l 1
 72.99609375 102.194335938 l 1
 156.99609375 252.538085938 l 1
 182.459960938 224.572265625 l 1
 191.174804688 234.172851562 l 1
 211.125976562 256.153320312 l 1
 298.381835938 106.401367188 l 1
159.275390625 332.352539062 m 1
 88.412109375 444.750976562 l 1
 187.947265625 565.512695312 l 1
 278.583984375 446.69921875 l 1
 210.532226562 333.692382812 l 1
 184.131835938 304.138671875 l 1
 159.275390625 332.352539062 l 1
EndSplineSet
Validated: 524297
EndChar

StartChar: nine
Encoding: 57 57 64
Width: 411
Flags: W
HStem: 122.81 58.0557<116.833 239.874> 441.845 58.0557<118.559 240.836>
VStem: 0.188477 58.0566<232.35 379.109> 297.753 58.0566<241.852 311.682 311.697 392.646>
LayerCount: 2
Fore
SplineSet
0.1884765625 294.986328125 m 0
 0.1884765625 239.588867188 30.515625 188.360351562 75.796875 162.216796875 c 2
 112.603515625 140.966796875 l 2
 132.5390625 129.45703125 155.374023438 122.809570312 179.794921875 122.809570312 c 0
 182.05859375 122.809570312 184.3359375 122.866210938 186.625976562 122.981445312 c 0
 227.580078125 124.989257812 262.46484375 142.928710938 288.055664062 170.52734375 c 1
 277.41796875 98.7509765625 258.750976562 41.9052734375 235.854492188 -3.115234375 c 1
 165.248046875 -102.139648438 21.4697265625 -137.711914062 21.4697265625 -137.711914062 c 1
 0.2197265625 -174.518554688 l 1
 37.0263671875 -195.768554688 l 1
 37.0263671875 -195.768554688 174.368164062 -195.768554688 262.41796875 -43.26171875 c 2
 283.66796875 -6.455078125 l 2
 325.1640625 65.41796875 355.711914062 171.1640625 355.776367188 326.745117188 c 0
 355.797851562 327.958984375 355.809570312 329.17578125 355.809570312 330.395507812 c 0
 355.809570312 384.892578125 326.147460938 435.856445312 281.823242188 461.447265625 c 2
 245.016601562 482.697265625 l 2
 226.127929688 493.603515625 204.577148438 499.900390625 181.5234375 499.900390625 c 0
 179.747070312 499.900390625 177.962890625 499.86328125 176.169921875 499.788085938 c 0
 118.6484375 497.022460938 71.2041015625 465.46484375 44.6083984375 419.401367188 c 2
 23.3583984375 382.595703125 l 2
 8.6279296875 357.081054688 0.1884765625 327.663085938 0.1884765625 294.986328125 c 0
197.079101562 441.844726562 m 0
 212.69140625 441.844726562 227.614257812 438.95703125 241.487304688 433.705078125 c 1
 275.818359375 405.955078125 297.752929688 361.704101562 297.752929688 314.83984375 c 0
 297.752929688 313.7890625 297.745117188 312.741210938 297.728515625 311.697265625 c 2
 297.719726562 311.681640625 l 2
 297.719726562 311.515625 297.719726562 311.350585938 297.719726562 311.184570312 c 0
 297.255859375 285.801757812 291.963867188 262.430664062 282.778320312 240.838867188 c 1
 256.642578125 206.370117188 217.80859375 183.329101562 171.0703125 181.038085938 c 0
 168.780273438 180.921875 166.502929688 180.865234375 164.239257812 180.865234375 c 0
 147.29296875 180.865234375 131.110351562 184.06640625 116.129882812 189.872070312 c 1
 80.833984375 218.026367188 58.2451171875 262.731445312 58.2451171875 310.541992188 c 0
 58.2451171875 335.46875 63.1279296875 358.052734375 71.923828125 379.008789062 c 1
 99.6259765625 415.333007812 141.89453125 439.3359375 191.7265625 441.731445312 c 0
 193.51953125 441.807617188 195.303710938 441.844726562 197.079101562 441.844726562 c 0
EndSplineSet
Validated: 524297
EndChar

StartChar: period
Encoding: 46 46 65
Width: 136
Flags: W
HStem: 123.818 75.3633<5.34375 66.6371>
VStem: 0.444336 71.1113<127.901 194.337>
LayerCount: 2
Fore
SplineSet
71.5556640625 159.349609375 m 4
 71.5556640625 147.755859375 65.5888671875 136.91796875 56.314453125 131.563476562 c 6
 48.9541015625 127.313476562 l 6
 45.111328125 125.094726562 40.701171875 123.818359375 35.912109375 123.818359375 c 4
 24.26171875 123.818359375 14.365234375 130.166015625 8.9931640625 139.470703125 c 6
 4.7431640625 146.83203125 l 6
 2.0048828125 151.57421875 0.4443359375 157.096679688 0.4443359375 162.970703125 c 4
 0.4443359375 174.8125 6.787109375 185.46484375 16.33203125 190.975585938 c 6
 23.693359375 195.225585938 l 6
 28.0458984375 197.73828125 33.0634765625 199.181640625 38.44921875 199.181640625 c 4
 49.0927734375 199.181640625 57.6162109375 193.153320312 62.587890625 184.543945312 c 6
 66.837890625 177.182617188 l 6
 69.861328125 171.944335938 71.5556640625 165.745117188 71.5556640625 159.349609375 c 4
EndSplineSet
Validated: 524289
EndChar

StartChar: comma
Encoding: 44 44 66
Width: 137
Flags: W
HStem: 50.8604 139.353
VStem: 0.499023 81.9746<118.284 175.454>
LayerCount: 2
Fore
SplineSet
49.9619140625 190.212890625 m 5
 79.4775390625 175.454101562 l 5
 82.4736328125 125.544921875 l 5
 10.47265625 50.8603515625 l 5
 0.4990234375 76.3076171875 l 5
 0.0517578125 187.216796875 l 5
 49.9619140625 190.212890625 l 5
EndSplineSet
Validated: 524289
EndChar

StartChar: quotesingle
Encoding: 39 39 67
Width: 124
Flags: W
HStem: 439.644 139.353
VStem: 0.447266 81.9746<507.067 564.237>
LayerCount: 2
Fore
SplineSet
49.91015625 578.99609375 m 5
 79.42578125 564.237304688 l 5
 82.421875 514.328125 l 5
 10.4208984375 439.643554688 l 5
 0.447265625 465.090820312 l 5
 0 576 l 5
 49.91015625 578.99609375 l 5
EndSplineSet
Validated: 524289
EndChar

StartChar: grave
Encoding: 96 96 68
Width: 134
Flags: W
HStem: 440.006 137.994
VStem: -1.86133 102.277
LayerCount: 2
Fore
SplineSet
32.400390625 568.491210938 m 5
 64 578 l 5
 100.416015625 543.73828125 l 5
 99.2568359375 440.005859375 l 5
 74.544921875 451.680664062 l 5
 -1.861328125 532.075195312 l 5
 32.400390625 568.491210938 l 5
EndSplineSet
Validated: 524289
EndChar

StartChar: colon
Encoding: 58 58 69
Width: 136
Flags: W
HStem: 198.818 75.3633<5.34375 66.6371> 348.818 75.3633<5.34375 66.6371>
VStem: 0.444336 71.1113<202.901 269.337 352.901 419.337>
LayerCount: 2
Fore
SplineSet
71.5556640625 234.349609375 m 4
 71.5556640625 222.755859375 65.5888671875 211.91796875 56.314453125 206.563476562 c 6
 48.9541015625 202.313476562 l 6
 45.111328125 200.094726562 40.701171875 198.818359375 35.912109375 198.818359375 c 4
 24.26171875 198.818359375 14.365234375 205.166015625 8.9931640625 214.470703125 c 6
 4.7431640625 221.83203125 l 6
 2.0048828125 226.57421875 0.4443359375 232.096679688 0.4443359375 237.970703125 c 4
 0.4443359375 249.8125 6.787109375 260.46484375 16.33203125 265.975585938 c 6
 23.693359375 270.225585938 l 6
 28.0458984375 272.73828125 33.0634765625 274.181640625 38.44921875 274.181640625 c 4
 49.0927734375 274.181640625 57.6162109375 268.153320312 62.587890625 259.543945312 c 6
 66.837890625 252.182617188 l 6
 69.861328125 246.944335938 71.5556640625 240.745117188 71.5556640625 234.349609375 c 4
71.5556640625 384.349609375 m 4
 71.5556640625 372.755859375 65.5888671875 361.91796875 56.314453125 356.563476562 c 6
 48.9541015625 352.313476562 l 6
 45.111328125 350.094726562 40.701171875 348.818359375 35.912109375 348.818359375 c 4
 24.26171875 348.818359375 14.365234375 355.166015625 8.9931640625 364.470703125 c 6
 4.7431640625 371.83203125 l 6
 2.0048828125 376.57421875 0.4443359375 382.096679688 0.4443359375 387.970703125 c 4
 0.4443359375 399.8125 6.787109375 410.46484375 16.33203125 415.975585938 c 6
 23.693359375 420.225585938 l 6
 28.0458984375 422.73828125 33.0634765625 424.181640625 38.44921875 424.181640625 c 4
 49.0927734375 424.181640625 57.6162109375 418.153320312 62.587890625 409.543945312 c 6
 66.837890625 402.182617188 l 6
 69.861328125 396.944335938 71.5556640625 390.745117188 71.5556640625 384.349609375 c 4
EndSplineSet
Validated: 524289
EndChar

StartChar: semicolon
Encoding: 59 59 70
Width: 136
Flags: W
HStem: 348.818 75.3633<5.34375 66.6371>
VStem: 0.0234375 79.0449<211.403 261.38> 0.444336 71.1113<352.901 419.337>
LayerCount: 2
Fore
SplineSet
50 277 m 1xc0
 79.068359375 261.379882812 l 1
 80.591796875 211.403320312 l 1
 6.421875 138.873046875 l 1
 -2.796875 164.602539062 l 1
 0.0234375 275.477539062 l 1
 50 277 l 1xc0
71.5556640625 384.349609375 m 0xa0
 71.5556640625 372.755859375 65.5888671875 361.91796875 56.314453125 356.563476562 c 2
 48.9541015625 352.313476562 l 2
 45.111328125 350.094726562 40.701171875 348.818359375 35.912109375 348.818359375 c 0
 24.26171875 348.818359375 14.365234375 355.166015625 8.9931640625 364.470703125 c 2
 4.7431640625 371.83203125 l 2
 2.0048828125 376.57421875 0.4443359375 382.096679688 0.4443359375 387.970703125 c 0
 0.4443359375 399.8125 6.787109375 410.46484375 16.33203125 415.975585938 c 2
 23.693359375 420.225585938 l 2
 28.0458984375 422.73828125 33.0634765625 424.181640625 38.44921875 424.181640625 c 0
 49.0927734375 424.181640625 57.6162109375 418.153320312 62.587890625 409.543945312 c 2
 66.837890625 402.182617188 l 2
 69.861328125 396.944335938 71.5556640625 390.745117188 71.5556640625 384.349609375 c 0xa0
EndSplineSet
Validated: 524289
EndChar

StartChar: dollar
Encoding: 36 36 71
Width: 399
Flags: W
HStem: -171.507 170.106G<116.747 162.935 182.608 228.797> 122.854 58.0557<137.927 195.702> 277.48 58.0566<59.2773 295.596> 442.48 58.0557<126.517 215.837>
VStem: 1.22168 58.0557<233.408 251.222 335.854 400.857> 107.044 58.0557<35.4062 435.968> 116.394 58.0566<175.095 575.7> 180.443 58.0566<-155.7 432.294> 189.094 58.0566<-13.4009 574.594> 296.172 58.3486<217.983 277.419 351.777 391.893>
LayerCount: 2
Fore
SplineSet
247.150390625 590.150390625 m 1xf8c0
 238.5 -155.700195312 l 1
 217.25 -192.506835938 l 1
 180.443359375 -171.256835938 l 1xf940
 189.09375 574.59375 l 1
 210.34375 611.400390625 l 1
 247.150390625 590.150390625 l 1xf8c0
44.876953125 277.48046875 m 0
 44.6201171875 277.48046875 44.3662109375 277.481445312 44.115234375 277.484375 c 1
 59.27734375 251.221679688 l 1
 59.376953125 245.19140625 60.34765625 239.130859375 62.109375 233.126953125 c 0
 88.443359375 203.401367188 133.418945312 180.91015625 184.02734375 180.91015625 c 0
 207.375976562 180.91015625 229.80859375 186.09375 249.86328125 194.637695312 c 1
 277.474609375 215.501953125 295.322265625 242.5625 296.171875 266.77734375 c 0
 296.264648438 269.416992188 296.34765625 271.911132812 296.401367188 274.267578125 c 0
 279.427734375 278.608398438 249.337890625 279.254882812 196.4375 280.390625 c 0
 180.551757812 280.731445312 160.016601562 281.279296875 143.834960938 281.279296875 c 0
 110.537109375 281.279296875 86.3740234375 279.737304688 68.8408203125 278.618164062 c 0
 58.8583984375 277.981445312 51.0244140625 277.48046875 44.876953125 277.48046875 c 0
159.390625 339.3359375 m 0
 175.57421875 339.3359375 196.102539062 338.787109375 211.993164062 338.446289062 c 0
 262.5625 337.360351562 292.286132812 336.72265625 309.634765625 332.875976562 c 1
 298.721679688 351.77734375 l 1
 298.721679688 366.35546875 296.375976562 379.975585938 291.997070312 392.48046875 c 1
 265.12109375 423.875 221.069335938 442.48046875 169.579101562 442.48046875 c 0
 148.23828125 442.48046875 128.180664062 438.272460938 110.149414062 430.94921875 c 1
 78.712890625 406.411132812 59.27734375 371.188476562 59.27734375 336.221679688 c 0
 59.27734375 335.995117188 59.27734375 335.768554688 59.27734375 335.54296875 c 0
 59.65625 335.5390625 60.041015625 335.537109375 60.43359375 335.537109375 c 0
 66.580078125 335.537109375 74.4140625 336.037109375 84.3974609375 336.674804688 c 0
 101.930664062 337.793945312 126.092773438 339.3359375 159.390625 339.3359375 c 0
354.520507812 263.705078125 m 0
 354.520507812 259.954101562 354.388671875 255.80859375 354.227539062 251.221679688 c 0
 353.208007812 222.168945312 327.721679688 189.020507812 290.259765625 167.390625 c 2
 253.453125 146.140625 l 2
 229.0546875 132.0546875 199.577148438 122.854492188 168.470703125 122.854492188 c 0
 108.212890625 122.854492188 55.5234375 154.876953125 33.455078125 193.099609375 c 2
 12.205078125 229.90625 l 2
 5.326171875 241.8203125 1.42578125 254.364257812 1.2216796875 266.77734375 c 1
 27.28125 281.82421875 l 1
 26.640625 282.474609375 26.0859375 283.211914062 25.6044921875 284.045898438 c 2
 4.3544921875 320.8515625 l 2
 1.2216796875 326.27734375 1.2216796875 335.767578125 1.2216796875 351.77734375 c 0
 1.2216796875 392.8828125 28.078125 434.33984375 69.71484375 458.37890625 c 2
 106.521484375 479.62890625 l 2
 129.040039062 492.630859375 155.881835938 500.536132812 185.135742188 500.536132812 c 0
 245.478515625 500.536132812 295.728515625 474.98828125 319.931640625 433.067382812 c 2
 341.181640625 396.260742188 l 2
 351.198242188 378.912109375 356.77734375 358.706054688 356.77734375 336.221679688 c 1
 329.907226562 320.708007812 l 1
 350.846679688 284.439453125 l 2
 353.766601562 279.383789062 354.520507812 272.674804688 354.520507812 263.705078125 c 0
116.393554688 591.256835938 m 1xfa40
 153.200195312 612.506835938 l 1
 174.450195312 575.700195312 l 1xfa40
 165.099609375 19.849609375 l 1
 128.293945312 -1.400390625 l 1
 107.043945312 35.40625 l 1xfc40
 116.393554688 591.256835938 l 1xfa40
EndSplineSet
Validated: 524293
EndChar

StartChar: slash
Encoding: 47 47 72
Width: 397
Flags: W
LayerCount: 2
Fore
SplineSet
295.721679688 632.528320312 m 5
 332.528320312 653.778320312 l 5
 353.778320312 616.971679688 l 5
 56.2783203125 -178.528320312 l 5
 19.4716796875 -199.778320312 l 5
 -1.7783203125 -162.971679688 l 5
 295.721679688 632.528320312 l 5
EndSplineSet
Validated: 524289
EndChar

StartChar: hyphen
Encoding: 45 45 73
Width: 348
Flags: W
HStem: 282.896 58.0566<38.0283 250.972>
VStem: 1.22168 286.557
LayerCount: 2
Fore
SplineSet
22.4716796875 282.896484375 m 5
 1.2216796875 319.703125 l 5
 38.0283203125 340.953125 l 5
 266.528320312 340.103515625 l 5
 287.778320312 303.296875 l 5
 250.971679688 282.046875 l 5
 22.4716796875 282.896484375 l 5
EndSplineSet
Validated: 524289
EndChar

StartChar: numbersign
Encoding: 35 35 74
Width: 410
Flags: W
HStem: 0 21G<19.4532 65.6406 123.599 169.788> 214.472 58.0566<36.8027 52.5527 128.079 200.419 275.478 318.747> 341.972 58.0566<36.8027 82.8125 158.339 229.868 304.927 318.747>
LayerCount: 2
Fore
SplineSet
67.8056640625 21.25 m 1
 31 0 l 1
 9.75 36.806640625 l 1
 52.552734375 214.471679688 l 1
 21.2470703125 214.471679688 l 1
 -0.0029296875 251.278320312 l 1
 36.802734375 272.528320312 l 1
 66.3310546875 272.528320312 l 1
 82.8125 341.971679688 l 1
 21.2470703125 341.971679688 l 1
 -0.0029296875 378.778320312 l 1
 36.802734375 400.028320312 l 1
 96.5908203125 400.028320312 l 1
 114.747070312 476.528320312 l 1
 151.552734375 497.778320312 l 1
 172.802734375 460.971679688 l 1
 158.338867188 400.028320312 l 1
 243.27734375 400.028320312 l 1
 260.947265625 476.528320312 l 1
 297.752929688 497.778320312 l 1
 319.002929688 460.971679688 l 1
 304.926757812 400.028320312 l 1
 334.302734375 400.028320312 l 1
 355.552734375 363.221679688 l 1
 318.747070312 341.971679688 l 1
 291.516601562 341.971679688 l 1
 275.477539062 272.528320312 l 1
 334.302734375 272.528320312 l 1
 355.552734375 235.721679688 l 1
 318.747070312 214.471679688 l 1
 262.067382812 214.471679688 l 1
 171.953125 -175.677734375 l 1
 135.146484375 -196.927734375 l 1
 113.896484375 -160.122070312 l 1
 200.418945312 214.471679688 l 1
 114.30078125 214.471679688 l 1
 67.8056640625 21.25 l 1
229.868164062 341.971679688 m 1
 144.560546875 341.971679688 l 1
 128.079101562 272.528320312 l 1
 213.828125 272.528320312 l 1
 229.868164062 341.971679688 l 1
EndSplineSet
Validated: 524289
EndChar

StartChar: percent
Encoding: 37 37 75
Width: 431
Flags: W
HStem: 133.328 40.9805<231.395 257.461> 208.691 40.9805<234.923 260.564> 272.265 61.4707<39.2354 310.765> 279.265 61.4707<39.2354 310.765> 361.328 40.9805<88.3949 114.461> 436.691 40.9805<91.9229 117.564>
VStem: 46.9541 40.9805<406.095 436.332> 118.065 40.9805<402.541 433.321> 189.954 40.9805<178.095 208.332> 261.065 40.9805<174.541 205.321>
LayerCount: 2
Fore
SplineSet
302.045898438 183.859375 m 0xcfc0
 302.045898438 172.265625 296.079101562 161.427734375 286.8046875 156.073242188 c 0
 275.69140625 149.65625 264.577148438 143.239257812 253.462890625 136.823242188 c 0
 249.620117188 134.604492188 245.2109375 133.328125 240.421875 133.328125 c 0
 228.771484375 133.328125 218.875 139.67578125 213.502929688 148.98046875 c 0
 207.084960938 160.096679688 200.669921875 171.20703125 194.251953125 182.32421875 c 0
 191.513671875 187.065429688 189.954101562 192.587890625 189.954101562 198.4609375 c 0
 189.954101562 210.302734375 196.296875 220.955078125 205.841796875 226.465820312 c 0
 216.956054688 232.8828125 228.069335938 239.299804688 239.18359375 245.715820312 c 0
 243.536132812 248.228515625 248.553710938 249.671875 253.939453125 249.671875 c 0
 264.583007812 249.671875 273.106445312 243.643554688 278.078125 235.034179688 c 0
 284.495117188 223.919921875 290.912109375 212.806640625 297.328125 201.692382812 c 0
 300.3515625 196.454101562 302.045898438 190.254882812 302.045898438 183.859375 c 0xcfc0
261.065429688 194.83984375 m 0
 261.065429688 197.370117188 260.799804688 199.870117188 260.291992188 202.291015625 c 0
 255.611328125 206.264648438 249.711914062 208.69140625 242.958984375 208.69140625 c 0
 241.408203125 208.69140625 239.888671875 208.571289062 238.407226562 208.341796875 c 0
 233.732421875 202.68359375 230.934570312 195.344726562 230.934570312 187.48046875 c 0
 230.934570312 185.470703125 231.1171875 183.501953125 231.467773438 181.591796875 c 0
 236.826171875 177.05859375 243.734375 174.30859375 251.40234375 174.30859375 c 0
 252.353515625 174.30859375 253.2890625 174.359375 254.208007812 174.45703125 c 0
 258.53515625 180.060546875 261.065429688 187.290039062 261.065429688 194.83984375 c 0
159.045898438 411.859375 m 0
 159.045898438 400.265625 153.079101562 389.427734375 143.8046875 384.073242188 c 0
 132.69140625 377.65625 121.577148438 371.239257812 110.462890625 364.823242188 c 0
 106.620117188 362.604492188 102.2109375 361.328125 97.421875 361.328125 c 0
 85.771484375 361.328125 75.875 367.67578125 70.5029296875 376.98046875 c 0
 64.0849609375 388.096679688 57.669921875 399.20703125 51.251953125 410.32421875 c 0
 48.513671875 415.065429688 46.9541015625 420.587890625 46.9541015625 426.4609375 c 0
 46.9541015625 438.302734375 53.296875 448.955078125 62.841796875 454.465820312 c 0
 73.9560546875 460.8828125 85.0693359375 467.299804688 96.18359375 473.715820312 c 0
 100.536132812 476.228515625 105.553710938 477.671875 110.939453125 477.671875 c 0
 121.583007812 477.671875 130.106445312 471.643554688 135.078125 463.034179688 c 0
 141.495117188 451.919921875 147.912109375 440.806640625 154.328125 429.692382812 c 0
 157.3515625 424.454101562 159.045898438 418.254882812 159.045898438 411.859375 c 0
118.065429688 422.83984375 m 0
 118.065429688 425.370117188 117.799804688 427.870117188 117.291992188 430.291015625 c 0
 112.611328125 434.264648438 106.711914062 436.69140625 99.958984375 436.69140625 c 0
 98.408203125 436.69140625 96.888671875 436.571289062 95.4072265625 436.341796875 c 0
 90.732421875 430.68359375 87.9345703125 423.344726562 87.9345703125 415.48046875 c 0
 87.9345703125 413.470703125 88.1171875 411.501953125 88.4677734375 409.591796875 c 0
 93.826171875 405.05859375 100.734375 402.30859375 108.40234375 402.30859375 c 0
 109.353515625 402.30859375 110.2890625 402.359375 111.208007812 402.45703125 c 0
 115.53515625 408.060546875 118.065429688 415.290039062 118.065429688 422.83984375 c 0
22.7646484375 279.264648438 m 1xdfc0
 0.2646484375 318.235351562 l 1
 39.2353515625 340.735351562 l 1xdfc0
 327.235351562 333.735351562 l 1
 349.735351562 294.764648438 l 1
 310.764648438 272.264648438 l 1xefc0
 22.7646484375 279.264648438 l 1xdfc0
EndSplineSet
Validated: 524289
EndChar

StartChar: ordmasculine
Encoding: 186 186 76
Width: 120
Flags: W
HStem: 500.328 40.9805<43.3949 69.4608> 575.691 40.9805<46.9229 72.5635>
VStem: 1.9541 40.9805<545.095 575.332> 73.0654 40.9805<541.541 572.321>
LayerCount: 2
Fore
SplineSet
114.045898438 550.859375 m 0
 114.045898438 539.265625 108.079101562 528.427734375 98.8046875 523.073242188 c 0
 87.69140625 516.65625 76.5771484375 510.239257812 65.462890625 503.823242188 c 0
 61.6201171875 501.604492188 57.2109375 500.328125 52.421875 500.328125 c 0
 40.771484375 500.328125 30.875 506.67578125 25.5029296875 515.98046875 c 0
 19.0849609375 527.096679688 12.669921875 538.20703125 6.251953125 549.32421875 c 0
 3.513671875 554.065429688 1.9541015625 559.587890625 1.9541015625 565.4609375 c 0
 1.9541015625 577.302734375 8.296875 587.955078125 17.841796875 593.465820312 c 0
 28.9560546875 599.8828125 40.0693359375 606.299804688 51.18359375 612.715820312 c 0
 55.5361328125 615.228515625 60.5537109375 616.671875 65.939453125 616.671875 c 0
 76.5830078125 616.671875 85.1064453125 610.643554688 90.078125 602.034179688 c 0
 96.4951171875 590.919921875 102.912109375 579.806640625 109.328125 568.692382812 c 0
 112.3515625 563.454101562 114.045898438 557.254882812 114.045898438 550.859375 c 0
73.0654296875 561.83984375 m 0
 73.0654296875 564.370117188 72.7998046875 566.870117188 72.2919921875 569.291015625 c 0
 67.611328125 573.264648438 61.7119140625 575.69140625 54.958984375 575.69140625 c 0
 53.408203125 575.69140625 51.888671875 575.571289062 50.4072265625 575.341796875 c 0
 45.732421875 569.68359375 42.9345703125 562.344726562 42.9345703125 554.48046875 c 0
 42.9345703125 552.470703125 43.1171875 550.501953125 43.4677734375 548.591796875 c 0
 48.826171875 544.05859375 55.734375 541.30859375 63.40234375 541.30859375 c 0
 64.353515625 541.30859375 65.2890625 541.359375 66.2080078125 541.45703125 c 0
 70.53515625 547.060546875 73.0654296875 554.290039062 73.0654296875 561.83984375 c 0
EndSplineSet
Validated: 524289
EndChar

StartChar: ampersand
Encoding: 38 38 77
Width: 299
Flags: W
HStem: -197.778 58.0566<376.125 436.972> -89.2012 21G<91.9307 98.3765> 123.572 58.0557<279.53 317.972> 531.722 58.0566<57.668 317.972>
VStem: 0.0859375 58.0557<-4.71251 171.53>
LayerCount: 2
Fore
SplineSet
281 -123 m 1048
-0.7783203125 589.778320312 m 1
 333.528320312 589.778320312 l 1
 354.778320312 552.971679688 l 1
 317.971679688 531.721679688 l 1
 57.66796875 531.721679688 l 1
 59.0673828125 482.95703125 65.478515625 373.565429688 94.86328125 248.521484375 c 0
 108.845703125 189.024414062 125.185546875 127.95703125 154.34765625 78.55859375 c 0
 157.5859375 73.0732421875 160.963867188 67.75 164.479492188 62.59765625 c 1
 184.209960938 95.251953125 207.619140625 126.817382812 238.90625 144.880859375 c 2
 275.712890625 166.130859375 l 2
 292.5 175.823242188 311.555664062 181.627929688 333.528320312 181.627929688 c 1
 354.778320312 144.822265625 l 1
 317.971679688 123.572265625 l 1
 303.819335938 123.572265625 290.876953125 121.1640625 278.971679688 116.859375 c 1
 247.544921875 91.30078125 224.799804688 52.16015625 204.975585938 16.4677734375 c 1
 225.279014075 -1.26038073402 278.389480701 -64.9665674574 340 -100 c 0
 391 -129 431.388862531 -139.721679688 452.528320312 -139.721679688 c 1
 473.778320312 -176.528320312 l 1
 436.971679688 -197.778320312 l 1
 405.752222945 -197.778320312 340 -159 281 -123 c 0
 231.690603562 -92.9129106479 195.17335239 -46.1693359584 178.568359375 -29.4755859375 c 1
 168.62109375 -45.0693359375 158.743164062 -57.3193359375 148.015625 -63.5126953125 c 2
 111.209960938 -84.7626953125 l 2
 106.240234375 -87.6318359375 101.088867188 -89.201171875 95.6640625 -89.201171875 c 0
 88.197265625 -89.201171875 80.212890625 -86.2275390625 71.47265625 -79.578125 c 0
 62.7568359375 -72.947265625 55.353515625 -63.9326171875 49.130859375 -53.154296875 c 2
 27.880859375 -16.3486328125 l 2
 7.89453125 18.2685546875 0.0859375 71.0830078125 0.0859375 121.579101562 c 0
 0.0859375 189.158203125 14.0712890625 252.5859375 31.572265625 262.690429688 c 2
 36.4697265625 265.518554688 l 1
 -0.7783203125 424.979492188 -0.7783203125 568.528320312 -0.7783203125 568.528320312 c 1
 -0.7783203125 589.778320312 l 1
58.1416015625 106.0234375 m 0
 58.1416015625 64.685546875 63.375 21.794921875 76.2373046875 -11.3955078125 c 0
 79.5859375 -15.2001953125 83.1796875 -18.59375 87.029296875 -21.521484375 c 0
 94.6884765625 -27.349609375 101.767578125 -30.353515625 108.426757812 -31.0068359375 c 1
 118.845703125 -18.0908203125 128.940429688 -0.392578125 139.733398438 19.056640625 c 1
 135.663085938 25.271484375 131.73046875 31.6787109375 127.932617188 38.2568359375 c 2
 106.682617188 75.0625 l 2
 89.447265625 104.915039062 74.9765625 138.296875 62.8271484375 173.307617188 c 1
 59.8525390625 152.790039062 58.1416015625 129.661132812 58.1416015625 106.0234375 c 0
EndSplineSet
Validated: 524289
EndChar

StartChar: parenleft
Encoding: 40 40 78
Width: 207
Flags: W
HStem: -28.7783 21G<150.362 201.038>
VStem: -0.203125 58.0566<205.918 431.213>
LayerCount: 2
Fore
SplineSet
-0.203125 326.778320312 m 4
 -0.203125 446.715820312 54.6396484375 521.604492188 117.977539062 608.090820312 c 4
 126.908203125 620.286132812 136.0078125 632.712890625 145.146484375 645.528320312 c 5
 181.953125 666.778320312 l 5
 203.203125 629.971679688 l 5
 194.064453125 617.15625 184.963867188 604.73046875 176.033203125 592.53515625 c 4
 112.696289062 506.047851562 57.853515625 431.16015625 57.853515625 311.221679688 c 4
 57.853515625 247.1484375 70.9853515625 196.96484375 96.552734375 152.206054688 c 4
 120.315429688 110.604492188 153.723632812 70.5361328125 181.953125 29.2783203125 c 5
 203.203125 -7.5283203125 l 5
 166.396484375 -28.7783203125 l 5
 134.327148438 18.09375 96.6142578125 66.2216796875 69.5908203125 113.028320312 c 6
 48.3408203125 149.833984375 l 6
 18.8857421875 200.8515625 -0.203125 254.270507812 -0.203125 326.778320312 c 4
EndSplineSet
Validated: 524289
EndChar

StartChar: parenright
Encoding: 41 41 79
Width: 207
Flags: W
VStem: 145.146 58.0566<205.918 431.213>
LayerCount: 2
Fore
SplineSet
203.203125 326.778320312 m 0
 203.203125 446.715820312 148.360351562 521.604492188 85.0224609375 608.090820312 c 0
 76.091796875 620.286132812 66.9921875 632.712890625 57.853515625 645.528320312 c 1
 21.046875 666.778320312 l 1
 -0.203125 629.971679688 l 1
 8.935546875 617.15625 18.0361328125 604.73046875 26.966796875 592.53515625 c 0
 90.3037109375 506.047851562 145.146484375 431.16015625 145.146484375 311.221679688 c 0
 145.146484375 247.1484375 132.014648438 196.96484375 106.447265625 152.206054688 c 0
 82.6845703125 110.604492188 49.2763671875 70.5361328125 21.046875 29.2783203125 c 1
 -0.203125 -7.5283203125 l 1
 36.603515625 -28.7783203125 l 1
 68.6728515625 18.09375 106.385742188 66.2216796875 133.409179688 113.028320312 c 2
 154.659179688 149.833984375 l 2
 184.114257812 200.8515625 203.203125 254.270507812 203.203125 326.778320312 c 0
EndSplineSet
Validated: 524297
EndChar

StartChar: asterisk
Encoding: 42 42 80
Width: 254
Flags: W
HStem: 220.611 182.777
VStem: 72.3984 45.0957<336.769 380.85>
LayerCount: 2
Fore
SplineSet
170.375 365.138671875 m 1
 192.9140625 342.599609375 l 1
 170.375 320.060546875 l 1
 124.23046875 294.686523438 l 1
 175.4609375 240.174804688 l 1
 130.3828125 240.174804688 l 1
 95.880859375 276.88671875 l 1
 64.3935546875 243.150390625 l 1
 41.8544921875 220.611328125 l 1
 19.3154296875 243.150390625 l 1
 67.287109375 294.546875 l 1
 21.625 320.060546875 l 1
 -0.9140625 342.599609375 l 1
 21.625 365.138671875 l 1
 72.3984375 336.768554688 l 1
 71.3359375 380.849609375 l 1
 93.875 403.388671875 l 1
 116.4140625 380.849609375 l 1
 117.494140625 336.060546875 l 1
 170.375 365.138671875 l 1
EndSplineSet
Validated: 524289
EndChar

StartChar: underscore
Encoding: 95 95 81
Width: 348
Flags: W
HStem: 29.8965 58.0566<18.0283 350.972>
LayerCount: 2
Fore
SplineSet
2.4716796875 29.896484375 m 1
 -18.7783203125 66.703125 l 1
 18.0283203125 87.953125 l 1
 366.528320312 87.103515625 l 1
 387.778320312 50.296875 l 1
 350.971679688 29.046875 l 1
 2.4716796875 29.896484375 l 1
EndSplineSet
Validated: 524289
EndChar

StartChar: equal
Encoding: 61 61 82
Width: 348
Flags: W
HStem: 222.896 58.0566<38.0283 250.972> 342.896 58.0566<38.0283 250.972>
VStem: 1.22168 286.557
LayerCount: 2
Fore
SplineSet
22.4716796875 222.896484375 m 1
 1.2216796875 259.703125 l 1
 38.0283203125 280.953125 l 1
 266.528320312 280.103515625 l 1
 287.778320312 243.296875 l 1
 250.971679688 222.046875 l 1
 22.4716796875 222.896484375 l 1
22.4716796875 342.896484375 m 1
 1.2216796875 379.703125 l 1
 38.0283203125 400.953125 l 1
 266.528320312 400.103515625 l 1
 287.778320312 363.296875 l 1
 250.971679688 342.046875 l 1
 22.4716796875 342.896484375 l 1
EndSplineSet
Validated: 524289
EndChar

StartChar: plus
Encoding: 43 43 83
Width: 348
Flags: W
HStem: 282.896 58.0566<38.0283 250.972>
VStem: 116.047 58.0566<197.028 409.972>
LayerCount: 2
Fore
SplineSet
174.103515625 181.471679688 m 5
 137.296875 160.221679688 l 5
 116.046875 197.028320312 l 5
 116.896484375 425.528320312 l 5
 153.703125 446.778320312 l 5
 174.953125 409.971679688 l 5
 174.103515625 181.471679688 l 5
22.4716796875 282.896484375 m 1
 1.2216796875 319.703125 l 1
 38.0283203125 340.953125 l 1
 266.528320312 340.103515625 l 1
 287.778320312 303.296875 l 1
 250.971679688 282.046875 l 1
 22.4716796875 282.896484375 l 1
EndSplineSet
Validated: 524293
EndChar

StartChar: less
Encoding: 60 60 84
Width: 438
Flags: W
HStem: 123.097 21G<312.706 382.348> 485.903 20G<324.553 374.81>
LayerCount: 2
Fore
SplineSet
112.688476562 324.337890625 m 5
 363.262695312 181.153320312 l 5
 384.512695312 144.346679688 l 5
 347.706054688 123.096679688 l 5
 3.2802734375 319.912109375 l 5
 363.262695312 505.903320312 l 5
 384.512695312 469.096679688 l 5
 347.706054688 447.846679688 l 5
 112.688476562 324.337890625 l 5
EndSplineSet
Validated: 524289
EndChar

StartChar: greater
Encoding: 62 62 85
Width: 438
Flags: W
LayerCount: 2
Fore
SplineSet
275.104492188 324.337890625 m 1
 24.5302734375 181.153320312 l 1
 3.2802734375 144.346679688 l 1
 40.0869140625 123.096679688 l 1
 384.512695312 319.912109375 l 1
 24.5302734375 505.903320312 l 1
 3.2802734375 469.096679688 l 1
 40.0869140625 447.846679688 l 1
 275.104492188 324.337890625 l 1
EndSplineSet
Validated: 524297
EndChar

StartChar: question
Encoding: 63 63 86
Width: 429
Flags: W
HStem: -139.182 75.3633<5.34375 66.6371> -20.6035 21G<20.6749 66.8632> 440.547 58.0566<71.5283 302.771>
VStem: 0.444336 71.1113<-135.099 -68.6633> 13.4717 58.0566<16.2031 120.595 408.503 440.547>
LayerCount: 2
Fore
SplineSet
71.5556640625 -103.650390625 m 0xf0
 71.5556640625 -115.244140625 65.5888671875 -126.08203125 56.314453125 -131.436523438 c 2
 48.9541015625 -135.686523438 l 2
 45.111328125 -137.905273438 40.701171875 -139.181640625 35.912109375 -139.181640625 c 0
 24.26171875 -139.181640625 14.365234375 -132.833984375 8.9931640625 -123.529296875 c 2
 4.7431640625 -116.16796875 l 2
 2.0048828125 -111.42578125 0.4443359375 -105.903320312 0.4443359375 -100.029296875 c 0
 0.4443359375 -88.1875 6.787109375 -77.53515625 16.33203125 -72.0244140625 c 2
 23.693359375 -67.7744140625 l 2
 28.0458984375 -65.26171875 33.0634765625 -63.818359375 38.44921875 -63.818359375 c 0
 49.0927734375 -63.818359375 57.6162109375 -69.8466796875 62.587890625 -78.4560546875 c 2
 66.837890625 -85.8173828125 l 2
 69.861328125 -91.0556640625 71.5556640625 -97.2548828125 71.5556640625 -103.650390625 c 0xf0
366.528320312 498.603515625 m 1
 366.528320312 461.796875 l 2
 366.528320312 390.751953125 308.956054688 333.795898438 244.46484375 289.037109375 c 0
 162.354492188 232.05078125 69.0283203125 147.279296875 69.0283203125 0.646484375 c 1
 32.2216796875 -20.603515625 l 1
 10.9716796875 16.203125 l 1
 10.9716796875 162.834960938 104.298828125 247.606445312 186.409179688 304.592773438 c 0
 238.848632812 340.987304688 286.712890625 391.20703125 302.771484375 440.546875 c 1
 71.5283203125 440.546875 l 1
 71.5283203125 392.947265625 l 1
 34.7216796875 371.697265625 l 1
 13.4716796875 408.502929688 l 1
 13.4716796875 477.353515625 l 1xe8
 50.2783203125 498.603515625 l 1
 366.528320312 498.603515625 l 1
EndSplineSet
Validated: 524289
EndChar

StartChar: at
Encoding: 64 64 87
Width: 430
Flags: W
HStem: 123.572 58.0557<57.8389 327.147> 228.122 58.0557<214.705 274.784> 470.372 58.0557<57.8965 271.821>
VStem: -0.953125 58.0557<181.628 470.372> 271.821 58.209<286.178 348.928 424.729 470.372>
LayerCount: 2
Fore
SplineSet
333.865234375 228.122070312 m 1
 87.9443359375 228.122070312 l 1
 271.443359375 424.728515625 l 1
 271.821289062 470.372070312 l 1
 57.896484375 470.372070312 l 1
 57.1025390625 308.872070312 l 1
 57.8388671875 181.627929688 l 1
 342.703125 181.627929688 l 1
 363.953125 144.822265625 l 1
 327.147460938 123.572265625 l 1
 0.0107421875 123.572265625 l 1
 -0.953125 324.427734375 l 1
 -0.0458984375 528.427734375 l 1
 330.030273438 528.427734375 l 1
 329.5 409.171875 l 1
 333.865234375 228.122070312 l 1
274.784179688 286.177734375 m 1
 273.271484375 348.927734375 l 1
 214.705078125 286.177734375 l 1
 274.784179688 286.177734375 l 1
EndSplineSet
Validated: 524289
EndChar

StartChar: bracketleft
Encoding: 91 91 88
Width: 118
Flags: W
HStem: -47.8984 58.5527<61.3975 169.239> 591.55 58.0566<59.0801 169.239>
VStem: 3.6377 57.7598<10.6543 591.55>
LayerCount: 2
Fore
SplineSet
0.8544921875 649.606445312 m 5
 184.795898438 649.606445312 l 5
 206.045898438 612.799804688 l 5
 169.239257812 591.549804688 l 5
 59.080078125 591.549804688 l 5
 61.3974609375 10.654296875 l 5
 184.795898438 12.1064453125 l 5
 206.045898438 -24.7001953125 l 5
 169.239257812 -45.9501953125 l 5
 3.6376953125 -47.8984375 l 5
 0.8544921875 649.606445312 l 5
EndSplineSet
Validated: 524289
EndChar

StartChar: bracketright
Encoding: 93 93 89
Width: 180
Flags: W
HStem: 10.6543 21G<-65.8955 57.5827>
LayerCount: 2
Fore
SplineSet
118.045898438 649.606445312 m 1
 -65.8955078125 649.606445312 l 1
 -87.1455078125 612.799804688 l 1
 -50.3388671875 591.549804688 l 1
 59.8203125 591.549804688 l 1
 57.5029296875 10.654296875 l 1
 -65.8955078125 12.1064453125 l 1
 -87.1455078125 -24.7001953125 l 1
 -50.3388671875 -45.9501953125 l 1
 115.262695312 -47.8984375 l 1
 118.045898438 649.606445312 l 1
EndSplineSet
Validated: 524297
EndChar

StartChar: backslash
Encoding: 92 92 90
Width: 397
Flags: W
LayerCount: 2
Fore
SplineSet
56.2783203125 632.528320312 m 1
 19.4716796875 653.778320312 l 1
 -1.7783203125 616.971679688 l 1
 295.721679688 -178.528320312 l 1
 332.528320312 -199.778320312 l 1
 353.778320312 -162.971679688 l 1
 56.2783203125 632.528320312 l 1
EndSplineSet
Validated: 524297
EndChar
